<svg width="31" height="9" viewBox="0 0 31 9" fill="none" xmlns="http://www.w3.org/2000/svg">
<path d="M30.4177 4.95307C30.6484 4.72236 30.6484 4.34832 30.4177 4.11761L26.6582 0.358082C26.4275 0.127378 26.0534 0.127378 25.8227 0.358082C25.592 0.588786 25.592 0.96283 25.8227 1.19353L29.1646 4.53534L25.8227 7.87715C25.592 8.10785 25.592 8.48189 25.8227 8.7126C26.0534 8.9433 26.4275 8.9433 26.6582 8.7126L30.4177 4.95307ZM0 5.12609H30V3.94459H0V5.12609Z" fill="#6B605E"/>
<path d="M20.4177 4.9527C20.6484 4.722 20.6484 4.34795 20.4177 4.11725L16.6582 0.357718C16.4275 0.127014 16.0534 0.127014 15.8227 0.357717C15.592 0.588421 15.592 0.962465 15.8227 1.19317L19.1645 4.53497L15.8227 7.87678C15.592 8.10748 15.592 8.48153 15.8227 8.71223C16.0534 8.94294 16.4275 8.94294 16.6582 8.71223L20.4177 4.9527ZM-5.16453e-08 5.12573L20 5.12573L20 3.94422L5.16453e-08 3.94422L-5.16453e-08 5.12573Z" fill="#6B605E"/>
</svg>
