<svg width="20" height="20" viewBox="0 0 20 20" fill="none" xmlns="http://www.w3.org/2000/svg">
<path d="M18 0H2C0.895431 0 0 0.895432 0 2V6.66698H20V2C20 0.89543 19.1046 0 18 0Z" fill="black"/>
<path d="M20 6.66724H0V13.3342H20V6.66724Z" fill="#CE032C"/>
<path d="M20 13.3318H0V17.9988C0 19.1033 0.895431 19.9988 2 19.9988H18C19.1046 19.9988 20 19.1033 20 17.9988V13.3318Z" fill="#FEC135"/>
<path d="M2 0.15H18C19.0217 0.15 19.85 0.978316 19.85 2.00011V17.9999C19.85 19.0217 19.0217 19.85 18 19.85H2C0.978282 19.85 0.15 19.0217 0.15 17.9999V13.3353V13.3326V6.66736V2.00012C0.15 0.978317 0.978281 0.15 2 0.15Z" stroke="#6B605E" stroke-width="0.3"/>
</svg>
