<svg width="41" height="13" viewBox="0 0 41 13" fill="none" xmlns="http://www.w3.org/2000/svg">
<path d="M40.5303 7.03082C40.8232 6.73793 40.8232 6.26305 40.5303 5.97016L35.7574 1.19719C35.4645 0.904294 34.9896 0.904294 34.6967 1.19719C34.4038 1.49008 34.4038 1.96495 34.6967 2.25785L38.9393 6.50049L34.6967 10.7431C34.4038 11.036 34.4038 11.5109 34.6967 11.8038C34.9896 12.0967 35.4645 12.0967 35.7574 11.8038L40.5303 7.03082ZM0 7.25049H40V5.75049H0V7.25049Z" fill="#007749"/>
<path d="M30.5303 7.03033C30.8232 6.73744 30.8232 6.26257 30.5303 5.96967L25.7574 1.1967C25.4645 0.903808 24.9896 0.903808 24.6967 1.1967C24.4038 1.48959 24.4038 1.96447 24.6967 2.25736L28.9393 6.5L24.6967 10.7426C24.4038 11.0355 24.4038 11.5104 24.6967 11.8033C24.9896 12.0962 25.4645 12.0962 25.7574 11.8033L30.5303 7.03033ZM-6.55671e-08 7.25L30 7.25L30 5.75L6.55671e-08 5.75L-6.55671e-08 7.25Z" fill="#007749"/>
</svg>
