<svg width="20" height="20" viewBox="0 0 20 20" fill="none" xmlns="http://www.w3.org/2000/svg">
<path d="M18 0H2C0.895431 0 0 0.895431 0 2V6.66736H20V2C20 0.895431 19.1046 0 18 0Z" fill="white"/>
<path d="M20 6.66797H0V13.3353H20V6.66797Z" fill="#061B79"/>
<path d="M20 13.3328H0V18.0001C0 19.1047 0.895431 20.0001 2 20.0001H18C19.1046 20.0001 20 19.1047 20 18.0001V13.3328Z" fill="#C23729"/>
<path d="M2 0.15H18C19.0217 0.15 19.85 0.978316 19.85 2.00011V17.9999C19.85 19.0217 19.0217 19.85 18 19.85H2C0.978282 19.85 0.15 19.0217 0.15 17.9999V13.3353V13.3326V6.66736V2.00012C0.15 0.978317 0.978281 0.15 2 0.15Z" stroke="#6B605E" stroke-width="0.3"/>
</svg>
