<svg viewBox="0 0 2469 212" fill="none" xmlns="http://www.w3.org/2000/svg">
<path d="M2.91164 21.5993L47.7808 49.6047C92.65 77.61 184.443 133.645 274.714 145.024C367.04 156.428 457.844 123.175 550.293 124.279C640.687 125.358 732.726 160.794 822.915 179.039C913.104 197.285 1005.55 198.389 1096.19 178.869C1188.89 159.373 1279.77 119.254 1372.43 103.192C1463.03 87.105 1555.39 95.0753 1645.75 99.5878C1736.1 104.1 1828.55 105.204 1919.07 95.9838C2011.64 86.788 2102.28 67.2681 2194.89 54.639C2285.45 41.9855 2377.98 36.2229 2423.22 33.3294L2468.46 30.4358" stroke="#D2D2C8"/>
</svg>
