<svg width="40" height="40" viewBox="0 0 40 40" fill="none" xmlns="http://www.w3.org/2000/svg">
<circle cx="20" cy="20" r="19.5" stroke="#6B605E"/>
<path d="M20.6383 31.2088H18.6821C18.5586 31.2088 18.4554 31.115 18.4434 30.9922C17.1059 17.2805 11.1222 10.5279 11.062 10.4613C10.9858 10.3769 10.979 10.2505 11.0462 10.1586C11.1134 10.0668 11.2361 10.0351 11.3395 10.0821C17.0539 12.6924 19.1202 21.5228 19.7054 24.8375C20.9144 20.1254 23.4928 16.3289 24.9999 14.4028C25.1059 14.2673 25.2037 14.145 25.292 14.0364C23.7914 14.7561 22.9117 16.8325 22.9016 16.8568C22.8608 16.9546 22.7618 17.0143 22.6555 17.0031C22.5503 16.9923 22.4646 16.9136 22.4447 16.8095C22.4239 16.7006 21.9526 14.1201 23.5865 12.1432C24.9591 10.4824 27.389 9.77681 30.7802 10.0615C30.8644 10.0684 30.9385 10.1193 30.9756 10.1953C31.0128 10.2713 31.0071 10.3608 30.961 10.4315C30.2897 11.4609 30.0607 12.4989 29.8185 13.598C29.618 14.5069 29.4108 15.4466 28.9316 16.3651C28.0648 18.0264 25.9887 18.206 25.1358 18.206C25.0485 18.206 24.9754 18.2041 24.9186 18.202C21.337 22.8647 20.882 30.9001 20.8779 30.9814C20.8712 31.1088 20.7659 31.2088 20.6383 31.2088ZM18.8994 30.7291H20.4134C20.5117 29.3384 21.1741 22.1898 24.618 17.8072C24.6679 17.7434 24.7466 17.7093 24.8274 17.7165C24.8325 17.7168 24.9476 17.7264 25.1358 17.7264C25.9009 17.7264 27.7607 17.5722 28.5061 16.1433C28.9558 15.2811 29.1474 14.4134 29.3501 13.4946C29.5662 12.5144 29.789 11.5043 30.3516 10.5109C27.3192 10.3241 25.1747 10.9779 23.9588 12.4456C23.003 13.5994 22.8419 15.0204 22.8508 15.8982C23.3832 14.9756 24.4442 13.5368 25.9659 13.337C26.0654 13.3243 26.163 13.3745 26.2098 13.4639C26.2566 13.5534 26.2424 13.6623 26.1745 13.7366C26.1714 13.74 25.8584 14.0844 25.3778 14.6986C24.0816 16.3555 20.952 20.7899 19.8961 26.1669C19.8733 26.2825 19.7695 26.3573 19.6519 26.3604C19.5339 26.3561 19.4368 26.2666 19.4227 26.1496C19.4083 26.0306 17.988 14.835 12.1432 11.0685C13.7985 13.357 17.7964 19.88 18.8994 30.7291Z" fill="#6B605E" stroke="#6B605E" stroke-width="0.5"/>
</svg>
