<svg width="40" height="41" viewBox="0 0 40 41" fill="none" xmlns="http://www.w3.org/2000/svg">
<circle cx="20" cy="20.3824" r="19.5" stroke="#6B605E"/>
<path d="M31.9996 25.9183H18.8176C18.7253 25.919 18.6352 25.9468 18.5586 25.9983L17.264 26.8598H16.4636V23.0935C16.4686 23.0545 16.4686 23.0149 16.4636 22.9758C16.4891 22.9047 16.496 22.8283 16.4835 22.7537C16.4711 22.6792 16.4398 22.6091 16.3926 22.5501C16.3454 22.4911 16.2839 22.4452 16.2139 22.4167C16.1439 22.3882 16.0678 22.3781 15.9928 22.3874C15.659 22.3858 15.3354 22.5026 15.0795 22.7169C15.0348 22.7625 14.9813 22.7986 14.9222 22.8229C14.8631 22.8472 14.7997 22.8592 14.7358 22.8582C14.6712 22.8598 14.6069 22.8481 14.5469 22.8238C14.487 22.7995 14.4327 22.7631 14.3875 22.7169C14.133 22.5031 13.8112 22.3858 13.4788 22.3858C13.1464 22.3858 12.8247 22.5031 12.5702 22.7169C12.525 22.7631 12.4707 22.7995 12.4107 22.8238C12.3508 22.8481 12.2865 22.8598 12.2218 22.8582C12.158 22.8592 12.0946 22.8472 12.0355 22.8229C11.9764 22.7986 11.9229 22.7625 11.8782 22.7169C11.6247 22.5014 11.3022 22.3845 10.9695 22.3874C10.6357 22.3858 10.3121 22.5026 10.0562 22.7169C10.0122 22.764 9.95895 22.8014 9.89984 22.8271C9.84072 22.8527 9.77697 22.8659 9.71254 22.8659C9.64811 22.8659 9.58436 22.8527 9.52524 22.8271C9.46613 22.8014 9.4129 22.764 9.36887 22.7169C9.11543 22.5014 8.79288 22.3845 8.46025 22.3874C8.38526 22.3781 8.30916 22.3882 8.23918 22.4167C8.16921 22.4452 8.10769 22.4911 8.0605 22.5501C8.0133 22.6091 7.98199 22.6792 7.96956 22.7537C7.95712 22.8283 7.96397 22.9047 7.98946 22.9758C7.98453 23.0149 7.98453 23.0545 7.98946 23.0935V26.9446C7.67809 27.0576 7.41634 27.2764 7.24996 27.5628C7.08358 27.8492 7.02315 28.185 7.07924 28.5114C7.13533 28.8379 7.30437 29.1342 7.55681 29.3487C7.80925 29.5631 8.12903 29.682 8.46025 29.6846H17.4052C17.4975 29.6838 17.5875 29.656 17.6641 29.6045L18.9588 28.743H31.9996C32.2493 28.743 32.4888 28.6438 32.6654 28.4672C32.842 28.2906 32.9412 28.0511 32.9412 27.8014V26.8598C32.9412 26.6101 32.842 26.3706 32.6654 26.194C32.4888 26.0175 32.2493 25.9183 31.9996 25.9183ZM8.93103 23.5643C9.15892 23.7264 9.43299 23.8106 9.71254 23.8044C10.0452 23.8073 10.3677 23.6903 10.6212 23.4749C10.6664 23.4287 10.7207 23.3923 10.7806 23.368C10.8406 23.3437 10.9049 23.332 10.9695 23.3336C11.0334 23.3326 11.0968 23.3446 11.1559 23.3689C11.215 23.3932 11.2685 23.4293 11.3132 23.4749C11.5666 23.6903 11.8892 23.8073 12.2218 23.8044C12.5557 23.806 12.8792 23.6892 13.1352 23.4749C13.1792 23.4278 13.2324 23.3903 13.2915 23.3647C13.3507 23.3391 13.4144 23.3259 13.4788 23.3259C13.5433 23.3259 13.607 23.3391 13.6661 23.3647C13.7253 23.3903 13.7785 23.4278 13.8225 23.4749C14.0784 23.6892 14.402 23.806 14.7358 23.8044C15.0172 23.8082 15.2926 23.7225 15.5221 23.5596V26.8551H8.93103V23.5643ZM18.8176 27.8014C18.7253 27.8021 18.6352 27.83 18.5586 27.8815L17.264 28.743H8.46025C8.33538 28.743 8.21564 28.6934 8.12735 28.6051C8.03906 28.5168 7.98946 28.3971 7.98946 28.2722C7.98946 28.1473 8.03906 28.0276 8.12735 27.9393C8.21564 27.851 8.33538 27.8014 8.46025 27.8014H17.4052C17.4975 27.8007 17.5875 27.7729 17.6641 27.7214L18.9588 26.8598H31.9996V27.8014H18.8176Z" fill="#6B605E" stroke="#6B605E" stroke-width="0.2"/>
<path d="M32.4702 10.9707L24.1137 11.0319H24.0619C24.0402 11.0276 24.0178 11.0276 23.996 11.0319L23.9442 11.0554H23.8877L23.836 11.0931C23.8191 11.1059 23.8034 11.1201 23.7889 11.1355L23.7512 11.1826C23.7391 11.1974 23.7281 11.2132 23.7183 11.2296L21.6421 15.1795L20.1403 16.0835C19.9271 16.2124 19.7738 16.4205 19.7138 16.6623C19.6538 16.9041 19.692 17.1598 19.8201 17.3734L20.7947 18.9741C20.9233 19.188 21.1316 19.3421 21.3737 19.4025C21.4492 19.4212 21.5267 19.4307 21.6044 19.4308C21.7707 19.4276 21.9331 19.3805 22.0752 19.2942L23.577 18.395H27.9789C28.0195 18.3999 28.0606 18.3999 28.1013 18.395L28.1954 18.3574L32.715 15.6786C32.7837 15.6367 32.8406 15.578 32.8801 15.5079C32.9197 15.4379 32.9407 15.3589 32.941 15.2784V11.4415C32.9407 11.3792 32.9281 11.3176 32.9039 11.2602C32.8796 11.2028 32.8442 11.1508 32.7998 11.1072C32.7121 11.0203 32.5937 10.9712 32.4702 10.9707ZM21.6044 18.5033L20.6299 16.8885L21.8445 16.1494L22.8144 17.7595L21.6044 18.5033ZM23.7277 17.4676L22.5413 15.4997L24.1373 12.4631L27.1597 17.4817L23.7277 17.4676ZM31.9994 14.9959L28.1531 17.3075L24.9376 11.9641L31.9994 11.9123V14.9959Z" fill="#6B605E" stroke="#6B605E" stroke-width="0.2"/>
<path d="M9.4017 21.7989H15.9927C16.7419 21.7989 17.4604 21.5013 17.9901 20.9715C18.5198 20.4418 18.8175 19.7233 18.8175 18.9741C18.8189 18.603 18.7464 18.2354 18.6042 17.8926C18.4619 17.5499 18.2527 17.239 17.9889 16.978C17.4596 16.4481 16.7416 16.1501 15.9927 16.1494C15.9076 16.1496 15.8241 16.173 15.7511 16.2169C15.6781 16.2608 15.6185 16.3238 15.5784 16.3989C15.5406 16.4725 15.5229 16.5548 15.527 16.6375C15.5312 16.7201 15.557 16.8002 15.602 16.8697C15.6898 16.9733 15.7459 17.1 15.7636 17.2346C15.7813 17.3692 15.7597 17.5061 15.7016 17.6288C15.6435 17.7515 15.5512 17.8549 15.4358 17.9265C15.3205 17.9981 15.1869 18.0349 15.0512 18.0326H9.4017C8.90226 18.0326 8.42328 18.231 8.07012 18.5841C7.71696 18.9373 7.51855 19.4163 7.51855 19.9157C7.51855 20.4152 7.71696 20.8941 8.07012 21.2473C8.42328 21.6005 8.90226 21.7989 9.4017 21.7989ZM9.4017 18.9741H15.0512C15.3042 18.9676 15.5527 18.9046 15.7783 18.7898C16.0039 18.6749 16.201 18.5111 16.3552 18.3103C16.5873 17.9975 16.6977 17.611 16.666 17.2228C16.9069 17.3178 17.1262 17.4603 17.3109 17.6418C17.5738 17.9043 17.7531 18.2387 17.8263 18.6029C17.8996 18.9671 17.8635 19.3448 17.7225 19.6885C17.5816 20.0322 17.3422 20.3266 17.0344 20.5345C16.7266 20.7425 16.3642 20.8548 15.9927 20.8573H9.4017C9.15198 20.8573 8.91249 20.7581 8.73591 20.5815C8.55933 20.4049 8.46013 20.1654 8.46013 19.9157C8.46013 19.666 8.55933 19.4265 8.73591 19.2499C8.91249 19.0733 9.15198 18.9741 9.4017 18.9741Z" fill="#6B605E" stroke="#6B605E" stroke-width="0.2"/>
</svg>
