<svg width="42" height="42" viewBox="0 0 42 42" fill="none" xmlns="http://www.w3.org/2000/svg">
<path d="M41 21.0883C41 32.1338 32.0461 41.0883 21 41.0883C9.95508 41.0883 1 32.1338 1 21.0883C1 10.0427 9.95508 1.08826 21 1.08826C32.0461 1.08826 41 10.0427 41 21.0883ZM21 40.6195C25.938 40.6195 30.4506 38.7737 33.8934 35.7407L27.3502 29.1987C27.129 29.3297 26.8743 29.4099 26.5992 29.4099C25.7809 29.4099 25.1149 28.7443 25.1149 27.9259C25.1149 27.8819 25.124 27.8405 25.1279 27.7975C24.5242 28.1661 23.8178 28.3826 23.0602 28.3826C20.8629 28.3826 19.075 26.5951 19.075 24.3982C19.075 23.6435 19.2898 22.9397 19.6558 22.3376C19.6166 22.3407 19.579 22.3494 19.5391 22.3494C18.7208 22.3494 18.0548 21.6834 18.0548 20.8646C18.0548 20.8219 18.0638 20.7817 18.0674 20.7398C17.4342 21.1243 16.7178 21.3209 16.0001 21.3209C15.0552 21.3209 14.1132 20.9837 13.3618 20.3177L10.9541 22.7255C11.3319 23.2429 11.3337 23.9463 10.9585 24.4651L12.6323 26.1391C12.8772 25.9611 13.1757 25.8529 13.5009 25.8529C14.3192 25.8529 14.9849 26.5193 14.9849 27.338C14.9849 28.156 14.3192 28.8216 13.5009 28.8216C12.6821 28.8216 12.0161 28.156 12.0161 27.338C12.0161 27.0134 12.1238 26.7151 12.3013 26.4705L10.6274 24.7966C10.369 24.9837 10.0658 25.0818 9.75988 25.0818C9.3798 25.0818 8.99972 24.9373 8.71068 24.6478C8.42984 24.3677 8.27552 23.9947 8.27552 23.5982C8.27552 23.2021 8.4298 22.829 8.71068 22.5486C8.99076 22.2677 9.3638 22.1134 9.76028 22.1134C10.0747 22.1134 10.3726 22.2142 10.6227 22.3944L13.0302 19.9869C11.6362 18.4239 11.684 16.0199 13.1826 14.5212C13.4466 14.257 13.7403 14.0414 14.051 13.8671L7.33464 7.15178C3.71796 10.6986 1.46876 15.6347 1.46876 21.0883C1.46876 31.8578 10.2305 40.6195 21 40.6195ZM23.0602 20.8822C22.1174 20.8822 21.2621 21.2571 20.6301 21.863C20.5988 21.8971 20.5664 21.929 20.5322 21.9601C19.9216 22.5929 19.5438 23.4517 19.5438 24.3983C19.5438 26.3369 21.1211 27.9139 23.0602 27.9139C24.0293 27.9139 24.9081 27.5197 25.5446 26.8831C25.5474 26.8804 25.5497 26.8773 25.5524 26.8745C26.1842 26.2386 26.5754 25.3635 26.5754 24.3983C26.5754 22.4595 24.9984 20.8822 23.0602 20.8822ZM27.6148 27.9259C27.6148 27.3654 27.1594 26.9095 26.5992 26.9095C26.3205 26.9095 26.0678 27.0227 25.8842 27.2052C25.8811 27.2083 25.8785 27.2117 25.8754 27.2147C25.6954 27.3982 25.5836 27.649 25.5836 27.9259C25.5836 28.4857 26.039 28.9412 26.5992 28.9412C27.1594 28.9412 27.6148 28.4857 27.6148 27.9259ZM20.5543 20.8646C20.5543 20.3045 20.0988 19.8486 19.539 19.8486C19.268 19.8486 19.0227 19.9569 18.8405 20.1306C18.8323 20.139 18.8255 20.1481 18.8172 20.1564C18.812 20.1616 18.8063 20.1659 18.801 20.1711C18.6301 20.3529 18.5235 20.596 18.5235 20.8646C18.5235 21.4248 18.979 21.8806 19.5391 21.8806C19.7933 21.8806 20.0231 21.7833 20.2014 21.6283C20.2332 21.5956 20.2655 21.5638 20.2983 21.5322C20.4556 21.3532 20.5543 21.1212 20.5543 20.8646ZM18.5094 19.7992C19.8548 18.4261 19.8478 16.2149 18.4863 14.8525C17.8008 14.1673 16.9 13.8244 16 13.8244C15.0992 13.8244 14.1992 14.1673 13.5137 14.8525C12.1438 16.2232 12.1442 18.4537 13.5145 19.8251L13.5196 19.8286L13.5213 19.8313C14.887 21.189 17.0994 21.1915 18.4696 19.8399C18.4828 19.8261 18.4957 19.8125 18.5094 19.7992ZM9.76056 22.5822C9.48948 22.5822 9.234 22.6877 9.0418 22.8799C8.85 23.0721 8.74416 23.3271 8.74416 23.5982C8.74416 23.8697 8.84964 24.1244 9.0418 24.3166C9.43752 24.7111 10.0816 24.7127 10.4781 24.3166C10.8717 23.9227 10.873 23.2836 10.4839 22.887C10.4797 22.8833 10.4743 22.8819 10.4703 22.8779C10.4674 22.875 10.4664 22.8711 10.4637 22.868C10.2735 22.6846 10.0254 22.5822 9.76056 22.5822ZM12.4848 27.3381C12.4848 27.8978 12.9406 28.3529 13.5008 28.3529C14.0605 28.3529 14.516 27.8978 14.516 27.3381C14.516 26.7775 14.0605 26.3217 13.5008 26.3217C12.9406 26.3217 12.4848 26.7775 12.4848 27.3381ZM40.5312 21.0883C40.5312 10.3187 31.7695 1.55702 21 1.55702C15.8522 1.55702 11.1663 3.5623 7.67364 6.82846L14.4953 13.6491C15.9352 13.0641 17.6508 13.3547 18.8176 14.5213C20.1366 15.8409 20.3307 17.8617 19.4088 19.393C19.4524 19.3891 19.4944 19.3798 19.5391 19.3798C20.3574 19.3798 21.0231 20.0458 21.0231 20.8646C21.0231 20.9066 21.0141 20.9461 21.0107 20.9872C21.6105 20.6255 22.3102 20.4134 23.0602 20.4134C23.982 20.4134 24.8294 20.7311 25.5051 21.2587L27.3034 19.4594C27.1242 19.2141 27.0153 18.9147 27.0153 18.5884C27.0153 18.2635 27.1233 17.9651 27.3012 17.7204L25.6184 16.0377C25.3737 16.2153 25.0752 16.3232 24.7504 16.3232C23.9317 16.3232 23.2657 15.6572 23.2657 14.8384C23.2657 14.0201 23.9317 13.3544 24.7504 13.3544C25.5692 13.3544 26.2356 14.0201 26.2356 14.8384C26.2356 15.1634 26.1276 15.4617 25.9498 15.7065L27.6325 17.3892C27.8772 17.2118 28.1754 17.104 28.5 17.104C28.8265 17.104 29.126 17.2133 29.3714 17.3927L31.0534 15.7091C30.8744 15.4639 30.7657 15.1646 30.7657 14.8384C30.7657 14.0201 31.4313 13.3544 32.2497 13.3544C33.068 13.3544 33.734 14.0201 33.734 14.8384C33.734 15.6572 33.068 16.3232 32.2497 16.3232C31.9262 16.3232 31.6291 16.2163 31.385 16.0399L29.702 17.7245C29.8779 17.9685 29.9845 18.2654 29.9845 18.5884C29.9845 18.9132 29.8767 19.2115 29.6991 19.4561L32.6319 22.3889C32.8766 22.2112 33.1749 22.1033 33.4997 22.1033C34.3184 22.1033 34.9844 22.7693 34.9844 23.588C34.9844 24.4068 34.3184 25.0728 33.4997 25.0728C32.6813 25.0728 32.0153 24.4068 32.0153 23.588C32.0153 23.2632 32.1231 22.9649 32.3007 22.7203L29.3679 19.7875C29.1232 19.9652 28.8249 20.0731 28.5001 20.0731C28.1767 20.0731 27.8793 19.9663 27.6352 19.7901L25.8595 21.5668C26.5902 22.2895 27.0442 23.2915 27.0442 24.3982C27.0442 25.1509 26.8306 25.853 26.4663 26.4542C26.5108 26.4502 26.5538 26.4408 26.5993 26.4408C27.4177 26.4408 28.0837 27.1072 28.0837 27.9259C28.0837 28.2993 27.9404 28.6368 27.7119 28.8979L34.2429 35.4277C38.1062 31.8571 40.5312 26.7514 40.5312 21.0883ZM28.5 17.5728C27.9398 17.5728 27.484 18.0283 27.484 18.5885C27.484 18.8688 27.5982 19.123 27.7826 19.3071L27.7852 19.3088C27.9688 19.4907 28.2217 19.6045 28.5 19.6045C29.0602 19.6045 29.5156 19.1486 29.5156 18.5885C29.5156 18.0283 29.0602 17.5728 28.5 17.5728ZM32.484 23.5881C32.484 24.1482 32.9395 24.6041 33.4996 24.6041C34.0598 24.6041 34.5156 24.1482 34.5156 23.5881C34.5156 23.0279 34.0598 22.5721 33.4996 22.5721C32.9395 22.5721 32.484 23.0279 32.484 23.5881ZM32.2496 15.8545C32.8098 15.8545 33.2652 15.3986 33.2652 14.8385C33.2652 14.2787 32.8098 13.8232 32.2496 13.8232C31.6898 13.8232 31.2344 14.2787 31.2344 14.8385C31.2344 15.1183 31.3481 15.3722 31.5317 15.5561L31.5351 15.5584L31.5361 15.5599C31.7197 15.7417 31.9717 15.8545 32.2496 15.8545ZM25.4719 15.5528C25.6539 15.3691 25.7668 15.1168 25.7668 14.8385C25.7668 14.2787 25.311 13.8232 24.7504 13.8232C24.1902 13.8232 23.7344 14.2787 23.7344 14.8385C23.7344 15.3986 24.1902 15.8545 24.7504 15.8545C25.0288 15.8545 25.2811 15.7417 25.4648 15.5598L25.4676 15.5556L25.4719 15.5528Z" stroke="#6B605E" stroke-width="0.7"/>
</svg>
