<svg width="40" height="41" viewBox="0 0 40 41" fill="none" xmlns="http://www.w3.org/2000/svg">
<circle cx="20" cy="20.0883" r="19.5" stroke="#6B605E"/>
<path d="M20.7631 8.46257C20.6497 8.35291 20.4984 8.30864 20.3534 8.32803C20.2085 8.30864 20.0563 8.35291 19.9428 8.46257C16.107 12.1702 13.823 15.6432 13.1531 18.7857C12.615 21.3134 13.1025 23.6146 14.6051 25.6258C14.702 25.756 16.138 27.396 16.2887 27.396C16.3917 27.396 15.2089 25.793 15.2975 25.7262C15.3942 25.6541 16.9017 26.748 16.9276 26.6391C15.6492 25.5608 15.4895 25.1556 15.3981 25.0332C14.0747 23.261 13.6456 21.2289 14.1219 18.9923C14.7335 16.1206 16.8301 12.9101 20.3534 9.44634C22.9957 12.0443 24.8458 14.5136 25.855 16.7904C26.7201 18.742 26.9753 20.5718 26.6136 22.2298C26.1976 24.1377 24.9904 25.8179 23.0252 27.2241C22.2278 27.7947 21.4602 28.2024 20.915 28.4593V25.2025L23.1881 22.9291C23.3817 22.7358 23.3817 22.4222 23.1881 22.2286C22.9945 22.0353 22.6812 22.0353 22.4876 22.2286L20.9147 23.8021V17.5019L23.1878 15.2286C23.3814 15.0353 23.3814 14.7216 23.1878 14.5284C22.9943 14.3348 22.6809 14.3348 22.4873 14.5284L20.9145 16.1018V13.2532C20.9145 12.9795 20.6925 12.7579 20.4188 12.7579C20.1457 12.7579 19.9237 12.9795 19.9237 13.2532V17.2968V20.1743L18.2184 18.4686C18.0251 18.2753 17.7117 18.2753 17.5182 18.4686C17.3246 18.6622 17.3246 18.9755 17.5182 19.1688L19.9235 21.5744V24.9965V28.5198C19.216 28.1957 18.0439 27.5806 16.9276 26.6391C16.7184 26.4629 15.4734 25.517 15.2975 25.7262C15.1207 25.9354 16.0804 27.2198 16.2887 27.396C17.7508 28.6292 19.2687 29.3314 19.9235 29.6017V32.5344C19.9235 32.8079 20.1454 33.0295 20.4185 33.0295C20.6922 33.0295 20.9142 32.8079 20.9142 32.5344V29.5458C21.479 29.3042 22.4928 28.8181 23.575 28.0476C25.7277 26.5141 27.1125 24.5775 27.5792 22.4471C28.4672 18.3963 26.1735 13.6913 20.7631 8.46257Z" fill="#6B605E"/>
<path d="M16.2887 27.396C16.138 27.396 14.702 25.756 14.6051 25.6258C13.1025 23.6146 12.615 21.3134 13.1531 18.7857C13.823 15.6432 16.107 12.1702 19.9428 8.46257C20.0563 8.35291 20.2085 8.30864 20.3534 8.32803C20.4984 8.30864 20.6497 8.35291 20.7631 8.46257C26.1735 13.6913 28.4672 18.3963 27.5792 22.4471C27.1125 24.5775 25.7277 26.5141 23.575 28.0476C22.4928 28.8181 21.479 29.3042 20.9142 29.5458V32.5344C20.9142 32.8079 20.6922 33.0295 20.4185 33.0295C20.1454 33.0295 19.9235 32.8079 19.9235 32.5344V29.6017C19.2687 29.3314 17.7508 28.6292 16.2887 27.396ZM16.2887 27.396C16.3917 27.396 15.2089 25.793 15.2975 25.7262M16.2887 27.396C16.0804 27.2198 15.1207 25.9354 15.2975 25.7262M16.2887 27.396L16.9276 26.6391M15.2975 25.7262C15.4734 25.517 16.7184 26.4629 16.9276 26.6391M15.2975 25.7262C15.3942 25.6541 16.9017 26.748 16.9276 26.6391M16.9276 26.6391C18.0439 27.5806 19.216 28.1957 19.9235 28.5198V24.9965V21.5744L17.5182 19.1688C17.3246 18.9755 17.3246 18.6622 17.5182 18.4686C17.7117 18.2753 18.0251 18.2753 18.2184 18.4686L19.9237 20.1743V17.2968V13.2532C19.9237 12.9795 20.1457 12.7579 20.4188 12.7579C20.6925 12.7579 20.9145 12.9795 20.9145 13.2532V16.1018L22.4873 14.5284C22.6809 14.3348 22.9943 14.3348 23.1878 14.5284C23.3814 14.7216 23.3814 15.0353 23.1878 15.2286L20.9147 17.5019V23.8021L22.4876 22.2286C22.6812 22.0353 22.9945 22.0353 23.1881 22.2286C23.3817 22.4222 23.3817 22.7358 23.1881 22.9291L20.915 25.2025V28.4593C21.4602 28.2024 22.2278 27.7947 23.0252 27.2241C24.9904 25.8179 26.1976 24.1377 26.6136 22.2298C26.9753 20.5718 26.7201 18.742 25.855 16.7904C24.8458 14.5136 22.9957 12.0443 20.3534 9.44634C16.8301 12.9101 14.7335 16.1206 14.1219 18.9923C13.6456 21.2289 14.0747 23.261 15.3981 25.0332C15.4895 25.1556 15.6492 25.5608 16.9276 26.6391Z" stroke="#6B605E" stroke-width="0.3"/>
</svg>
