<svg width="333" height="1100" viewBox="0 0 333 1100" fill="none" xmlns="http://www.w3.org/2000/svg">
<path d="M32.6134 266.224L37.9667 260.518L37.7907 261.39C37.1666 261.342 36.4806 261.126 35.7326 260.742C34.99 260.353 34.2746 259.835 33.5861 259.189C32.5126 258.182 31.8465 257.173 31.5879 256.163C31.3406 255.152 31.4134 254.15 31.8063 253.159C32.205 252.173 32.8449 251.21 33.7262 250.27L37.0679 246.709L38.9232 248.449L36.1316 251.425C35.6773 251.909 35.2799 252.403 34.9394 252.906C34.5988 253.409 34.3663 253.926 34.2417 254.456C34.1226 254.981 34.1596 255.52 34.3527 256.074C34.5513 256.623 34.9569 257.184 35.5695 257.759C36.2813 258.427 36.9977 258.885 37.7188 259.134C38.4453 259.376 39.0426 259.471 39.5106 259.416L38.254 260.212L44.4366 253.622L46.2831 255.354L34.46 267.956L32.6134 266.224Z" fill="#007749"/>
<path d="M41.0517 273.535L51.6706 259.903L60.3801 266.687L58.9274 268.552L52.1965 263.309L49.2173 267.134L54.8122 271.492L53.3594 273.357L47.7646 268.999L44.483 273.212L51.2139 278.455L49.7612 280.32L41.0517 273.535Z" fill="#007749"/>
<path d="M55.4453 284.488L56.5962 282.674C56.9192 282.927 57.2136 283.09 57.4794 283.164C57.7562 283.235 58.0387 283.215 58.327 283.105C58.6195 282.987 58.9484 282.76 59.3137 282.423C59.6857 282.091 60.1293 281.638 60.6446 281.065C61.3119 280.342 61.9705 279.58 62.6204 278.78C63.2704 277.979 63.8992 277.175 64.5068 276.367C65.1255 275.556 65.7114 274.767 66.2645 274C66.8175 273.233 67.324 272.517 67.784 271.852L77.3589 277.928L68.1004 292.518L65.9827 291.175L73.9747 278.58L68.5033 275.108C68.1266 275.627 67.7024 276.206 67.2308 276.845C66.7592 277.484 66.2517 278.156 65.7084 278.863C65.165 279.57 64.5898 280.29 63.9827 281.023C63.3823 281.76 62.7528 282.483 62.0941 283.193C61.5353 283.804 60.9924 284.332 60.4653 284.774C59.9382 285.217 59.4081 285.529 58.8752 285.712C58.3465 285.888 57.8038 285.885 57.2471 285.702C56.686 285.526 56.0854 285.121 55.4453 284.488Z" fill="#007749"/>
<path d="M82.6826 300.755C81.1342 299.987 79.9821 298.997 79.2262 297.783C78.474 296.563 78.1076 295.203 78.1271 293.704C78.1537 292.208 78.563 290.661 79.3549 289.062C80.1469 287.464 81.1296 286.201 82.3033 285.273C83.4841 284.349 84.7862 283.82 86.2096 283.686C87.6366 283.545 89.1243 283.858 90.6728 284.625C92.214 285.389 93.3608 286.381 94.1131 287.602C94.876 288.819 95.2442 290.175 95.2175 291.671C95.1909 293.166 94.7816 294.713 93.9897 296.312C93.1978 297.911 92.215 299.174 91.0414 300.101C89.8677 301.028 88.5638 301.561 87.1297 301.699C85.7062 301.833 84.2239 301.518 82.6826 300.755ZM83.7426 298.615C84.8323 299.172 85.8617 299.383 86.8308 299.247C87.8106 299.108 88.7034 298.684 89.5094 297.976C90.3189 297.261 91.0166 296.312 91.6025 295.129C92.1885 293.947 92.517 292.824 92.5882 291.761C92.663 290.691 92.4573 289.728 91.9711 288.871C91.4921 288.017 90.706 287.315 89.6127 286.765C88.523 286.207 87.4901 285.995 86.5139 286.127C85.5448 286.263 84.6555 286.688 83.846 287.403C83.0365 288.118 82.3352 289.066 81.7421 290.245C81.149 291.424 80.815 292.549 80.7403 293.619C80.6691 294.682 80.8766 295.641 81.3628 296.498C81.8561 297.359 82.6494 298.064 83.7426 298.615Z" fill="#007749"/>
<path d="M97.4618 307.116L103.57 290.951L109.924 293.352C110.949 293.74 111.731 294.275 112.268 294.957C112.806 295.639 113.125 296.379 113.225 297.178C113.327 297.97 113.24 298.732 112.963 299.465C112.627 300.356 112.117 301.036 111.435 301.505C110.761 301.977 110.01 302.189 109.181 302.141L109.366 301.583C110.303 302.227 110.908 303.025 111.182 303.975C111.459 304.918 111.412 305.879 111.041 306.859C110.682 307.81 110.179 308.565 109.531 309.124C108.891 309.686 108.133 310.028 107.257 310.15C106.392 310.268 105.447 310.133 104.421 309.746L97.4618 307.116ZM100.686 305.781L104.906 307.376C105.438 307.577 105.951 307.655 106.447 307.612C106.949 307.571 107.391 307.409 107.772 307.125C108.163 306.837 108.458 306.431 108.656 305.907C108.84 305.42 108.897 304.942 108.827 304.47C108.767 303.995 108.578 303.568 108.258 303.191C107.949 302.809 107.526 302.516 106.987 302.313L102.62 300.662L100.686 305.781ZM103.456 298.451L107.396 299.94C107.83 300.104 108.252 300.165 108.661 300.123C109.08 300.076 109.454 299.927 109.78 299.674C110.117 299.416 110.374 299.052 110.552 298.58C110.79 297.951 110.776 297.356 110.509 296.793C110.243 296.231 109.758 295.817 109.055 295.551L105.115 294.062L103.456 298.451Z" fill="#007749"/>
<path d="M116.552 313.894L121.193 297.249L131.827 300.213L131.192 302.49L122.974 300.199L121.672 304.869L128.503 306.774L127.868 309.051L121.037 307.146L119.603 312.29L127.822 314.581L127.187 316.858L116.552 313.894Z" fill="#007749"/>
<path d="M135.203 318.73L138.299 301.73L140.766 302.179L139.322 310.112L147.885 303.475L150.955 304.034L141.923 310.964L148.414 321.136L145.25 320.56L139.15 311.057L137.67 319.179L135.203 318.73Z" fill="#007749"/>
<path d="M29.2331 1016.2C28.3334 1015.4 27.6671 1014.58 27.2343 1013.73C26.8015 1012.88 26.5454 1012.04 26.4662 1011.23C26.3982 1010.41 26.459 1009.66 26.6486 1008.97L29.2231 1009.35C29.0547 1009.84 28.9768 1010.36 28.9894 1010.92C29.008 1011.5 29.1609 1012.08 29.448 1012.69C29.7464 1013.29 30.2285 1013.89 30.8943 1014.48C31.56 1015.07 32.1962 1015.45 32.8027 1015.64C33.4146 1015.81 33.9737 1015.83 34.4801 1015.68C34.9977 1015.52 35.4445 1015.24 35.8204 1014.81C36.2598 1014.31 36.4666 1013.81 36.441 1013.31C36.4266 1012.8 36.2511 1012.31 35.9146 1011.82C35.5833 1011.32 35.1737 1010.85 34.6858 1010.38C34.2765 1010 33.9816 1009.72 33.8009 1009.55C33.6256 1009.38 33.5049 1009.26 33.4389 1009.2C33.379 1009.15 33.322 1009.1 33.268 1009.05L34.8403 1007.27C34.9063 1007.33 35.0202 1007.43 35.1822 1007.57C35.3501 1007.72 35.5241 1007.87 35.704 1008.03C35.8892 1008.19 36.0415 1008.31 36.1607 1008.4C36.9362 1009.02 37.6975 1009.37 38.4445 1009.44C39.1975 1009.52 39.8413 1009.26 40.376 1008.65C40.9107 1008.04 41.1066 1007.37 40.9639 1006.62C40.8271 1005.88 40.3958 1005.19 39.6701 1004.55C38.9803 1003.95 38.2462 1003.58 37.4678 1003.46C36.6947 1003.33 35.9694 1003.38 35.2919 1003.6L35.0578 1001.08C36.019 1000.86 37.0519 1000.88 38.1563 1001.14C39.2607 1001.4 40.3048 1001.96 41.2884 1002.83C41.8462 1003.32 42.3198 1003.87 42.7093 1004.48C43.1041 1005.09 43.376 1005.72 43.5252 1006.39C43.6743 1007.05 43.665 1007.72 43.4973 1008.4C43.3409 1009.07 42.9847 1009.72 42.4289 1010.35C41.873 1010.98 41.2411 1011.44 40.5332 1011.72C39.8313 1012.01 39.1351 1012.11 38.4446 1012.04C38.8425 1012.78 38.9976 1013.54 38.91 1014.32C38.8276 1015.09 38.4609 1015.84 37.8097 1016.58C37.0792 1017.41 36.2276 1017.93 35.2551 1018.15C34.2938 1018.37 33.2898 1018.31 32.2429 1017.97C31.202 1017.64 30.1987 1017.05 29.2331 1016.2Z" fill="#007749"/>
<path d="M38.7658 1027.62L41.8857 1023.41C42.3615 1023.76 42.8418 1023.93 43.3266 1023.92C43.8161 1023.91 44.3055 1023.76 44.795 1023.47C45.2956 1023.18 45.794 1022.81 46.2903 1022.34C46.793 1021.87 47.2913 1021.36 47.7854 1020.8C48.4623 1020.05 49.112 1019.31 49.7346 1018.57C50.3684 1017.84 51.0148 1017.07 51.6738 1016.28C52.3392 1015.48 53.0626 1014.62 53.8439 1013.69L62.7296 1020.28L53.8553 1032.27L54.8874 1033.03L51.7674 1037.25L49.7419 1035.75L51.4554 1033.43L42.4951 1026.8L40.7816 1029.11L38.7658 1027.62ZM45.194 1025.86L51.8395 1030.78L59.3073 1020.69L54.299 1016.96C53.7304 1017.64 53.1945 1018.28 52.6911 1018.89C52.1878 1019.51 51.67 1020.12 51.1378 1020.73C50.6169 1021.34 50.0473 1021.99 49.4293 1022.68C48.835 1023.33 48.316 1023.88 47.8723 1024.32C47.4335 1024.75 47.0036 1025.09 46.5827 1025.33C46.1683 1025.58 45.7054 1025.76 45.194 1025.86Z" fill="#007749"/>
<path d="M66.0791 1043.42C64.6036 1042.52 63.5423 1041.43 62.8954 1040.15C62.2526 1038.87 62.0063 1037.49 62.1566 1035.99C62.3137 1034.51 62.8565 1033 63.785 1031.48C64.7135 1029.95 65.8027 1028.78 67.0529 1027.96C68.3098 1027.14 69.6532 1026.73 71.0829 1026.72C72.5167 1026.71 73.9715 1027.15 75.447 1028.05C76.9157 1028.94 77.9715 1030.03 78.6143 1031.31C79.2681 1032.59 79.5164 1033.97 79.3593 1035.46C79.2022 1036.95 78.6594 1038.45 77.7309 1039.98C76.8024 1041.5 75.7131 1042.67 74.463 1043.49C73.2129 1044.32 71.8675 1044.73 70.4268 1044.75C68.9971 1044.75 67.5479 1044.31 66.0791 1043.42ZM67.3219 1041.38C68.3588 1042.03 69.3658 1042.33 70.3431 1042.28C71.3313 1042.22 72.2577 1041.88 73.1224 1041.24C73.9912 1040.6 74.7691 1039.72 75.4561 1038.59C76.1431 1037.46 76.5684 1036.37 76.7321 1035.32C76.9 1034.26 76.7792 1033.28 76.3697 1032.39C75.967 1031.5 75.2452 1030.73 74.2042 1030.09C73.1673 1029.43 72.1569 1029.13 71.1728 1029.18C70.1956 1029.23 69.2726 1029.58 68.4037 1030.22C67.5349 1030.86 66.7536 1031.74 66.0598 1032.86C65.366 1033.99 64.9351 1035.08 64.7673 1036.14C64.6035 1037.19 64.7264 1038.17 65.1359 1039.06C65.5523 1039.96 66.2809 1040.73 67.3219 1041.38Z" fill="#007749"/>
<path d="M80.1724 1051.1L87.8659 1035.63L94.1195 1038.74C94.2699 1038.81 94.4526 1038.91 94.6675 1039.04C94.886 1039.15 95.0867 1039.28 95.2694 1039.42C96.0613 1039.98 96.6316 1040.63 96.9803 1041.37C97.3362 1042.11 97.4864 1042.89 97.431 1043.72C97.3756 1044.55 97.1413 1045.38 96.7281 1046.21C96.3114 1047.05 95.7888 1047.74 95.1603 1048.29C94.5319 1048.83 93.8153 1049.19 93.0107 1049.35C92.2132 1049.52 91.3509 1049.45 90.4236 1049.16C90.2088 1049.09 89.9832 1049.01 89.7468 1048.91C89.5177 1048.81 89.3314 1048.73 89.1882 1048.65L85.1803 1046.66L82.4181 1052.22L80.1724 1051.1ZM86.2381 1044.53L90.1601 1046.48C90.3033 1046.56 90.4645 1046.63 90.6435 1046.7C90.8297 1046.77 91.0105 1046.83 91.1859 1046.87C91.6978 1046.99 92.1647 1046.98 92.5865 1046.83C93.0119 1046.68 93.3799 1046.44 93.6905 1046.12C94.001 1045.8 94.2507 1045.45 94.4394 1045.07C94.6282 1044.69 94.7543 1044.29 94.8178 1043.86C94.8848 1043.41 94.8498 1042.98 94.7129 1042.56C94.5796 1042.12 94.3104 1041.74 93.9054 1041.4C93.7691 1041.28 93.615 1041.17 93.4431 1041.07C93.2783 1040.97 93.1243 1040.88 92.981 1040.81L89.0591 1038.86L86.2381 1044.53Z" fill="#007749"/>
<path d="M105.922 1063.25C104.314 1062.61 103.083 1061.72 102.227 1060.58C101.375 1059.43 100.895 1058.1 100.788 1056.61C100.688 1055.11 100.966 1053.54 101.62 1051.88C102.274 1050.22 103.147 1048.88 104.238 1047.85C105.337 1046.83 106.589 1046.2 107.997 1045.94C109.407 1045.68 110.915 1045.87 112.523 1046.5C114.123 1047.13 115.349 1048.02 116.202 1049.18C117.065 1050.33 117.546 1051.65 117.646 1053.14C117.745 1054.63 117.468 1056.21 116.814 1057.87C116.16 1059.53 115.287 1060.87 114.196 1061.89C113.104 1062.91 111.85 1063.56 110.433 1063.81C109.026 1064.07 107.522 1063.88 105.922 1063.25ZM106.798 1061.03C107.93 1061.49 108.974 1061.61 109.928 1061.4C110.893 1061.17 111.747 1060.68 112.49 1059.9C113.236 1059.12 113.851 1058.12 114.336 1056.89C114.82 1055.66 115.052 1054.52 115.034 1053.45C115.018 1052.38 114.732 1051.44 114.175 1050.62C113.626 1049.81 112.783 1049.18 111.647 1048.72C110.514 1048.26 109.467 1048.13 108.506 1048.35C107.551 1048.57 106.701 1049.07 105.955 1049.85C105.209 1050.63 104.59 1051.63 104.098 1052.85C103.607 1054.08 103.369 1055.23 103.385 1056.3C103.403 1057.37 103.691 1058.31 104.248 1059.12C104.812 1059.93 105.662 1060.57 106.798 1061.03Z" fill="#007749"/>
<path d="M121.119 1068.4L126.086 1051.84L132.591 1053.8C133.641 1054.11 134.458 1054.59 135.042 1055.23C135.625 1055.88 135.995 1056.59 136.151 1057.38C136.308 1058.16 136.275 1058.93 136.049 1059.68C135.776 1060.59 135.315 1061.31 134.668 1061.82C134.028 1062.34 133.293 1062.61 132.463 1062.62L132.609 1062.05C133.588 1062.62 134.248 1063.38 134.587 1064.31C134.929 1065.23 134.949 1066.19 134.648 1067.19C134.356 1068.17 133.906 1068.95 133.3 1069.56C132.7 1070.16 131.968 1070.56 131.103 1070.74C130.248 1070.92 129.295 1070.85 128.246 1070.53L121.119 1068.4ZM124.242 1066.84L128.564 1068.14C129.108 1068.3 129.626 1068.34 130.117 1068.26C130.616 1068.19 131.045 1068 131.405 1067.69C131.776 1067.37 132.041 1066.95 132.202 1066.41C132.351 1065.91 132.375 1065.43 132.272 1064.96C132.18 1064.49 131.961 1064.08 131.616 1063.73C131.281 1063.37 130.838 1063.11 130.286 1062.94L125.815 1061.6L124.242 1066.84ZM126.494 1059.33L130.529 1060.54C130.973 1060.68 131.398 1060.71 131.803 1060.64C132.219 1060.56 132.58 1060.39 132.888 1060.11C133.207 1059.83 133.438 1059.45 133.583 1058.97C133.776 1058.32 133.72 1057.73 133.415 1057.19C133.11 1056.65 132.597 1056.27 131.877 1056.05L127.843 1054.84L126.494 1059.33Z" fill="#007749"/>
<path d="M140.578 1073.9L144.204 1057L146.656 1057.53L145.354 1063.59L149.731 1064.53C149.887 1064.57 150.085 1064.62 150.324 1064.68C150.573 1064.75 150.798 1064.82 151.001 1064.9C151.908 1065.25 152.621 1065.74 153.141 1066.37C153.669 1067 154.009 1067.72 154.161 1068.54C154.32 1069.36 154.302 1070.23 154.105 1071.14C153.91 1072.05 153.576 1072.84 153.102 1073.53C152.628 1074.21 152.021 1074.73 151.282 1075.09C150.55 1075.45 149.696 1075.6 148.717 1075.55C148.499 1075.53 148.267 1075.51 148.022 1075.47C147.776 1075.43 147.571 1075.4 147.406 1075.36L140.578 1073.9ZM143.526 1072.11L147.809 1073.03C147.957 1073.06 148.127 1073.09 148.318 1073.12C148.517 1073.14 148.708 1073.15 148.89 1073.14C149.423 1073.13 149.872 1073 150.237 1072.75C150.611 1072.5 150.908 1072.18 151.128 1071.8C151.358 1071.42 151.517 1071.02 151.606 1070.61C151.695 1070.19 151.714 1069.76 151.662 1069.32C151.618 1068.87 151.477 1068.46 151.239 1068.08C151.011 1067.7 150.655 1067.39 150.172 1067.17C150.01 1067.08 149.832 1067.02 149.638 1066.97C149.453 1066.91 149.287 1066.87 149.138 1066.84L144.856 1065.92L143.526 1072.11Z" fill="#007749"/>
<path d="M161.418 1077.99L163.715 1060.86L174.657 1062.33L174.342 1064.67L165.886 1063.54L165.242 1068.34L172.271 1069.28L171.957 1071.63L164.928 1070.68L164.218 1075.98L172.674 1077.11L172.36 1079.45L161.418 1077.99Z" fill="#007749"/>
<path d="M185.082 697.826L181.783 680.864L195.267 678.224L198.567 695.187L196.105 695.668L193.258 681.027L184.696 682.703L187.544 697.344L185.082 697.826Z" fill="#007749"/>
<path d="M205.689 693.214L200.847 676.626L207.549 674.663C207.71 674.616 207.912 674.565 208.155 674.511C208.395 674.449 208.628 674.406 208.854 674.381C209.818 674.257 210.678 674.347 211.433 674.651C212.196 674.953 212.839 675.427 213.361 676.075C213.884 676.722 214.275 677.491 214.535 678.382C214.797 679.28 214.882 680.143 214.791 680.97C214.699 681.798 214.412 682.544 213.932 683.21C213.459 683.874 212.783 684.413 211.904 684.829C211.698 684.923 211.475 685.013 211.233 685.1C211 685.186 210.806 685.251 210.653 685.296L206.357 686.553L208.096 692.509L205.689 693.214ZM205.691 684.273L209.895 683.042C210.048 682.997 210.215 682.94 210.395 682.87C210.582 682.799 210.755 682.719 210.913 682.631C211.37 682.372 211.704 682.045 211.914 681.65C212.121 681.248 212.231 680.824 212.243 680.379C212.254 679.933 212.201 679.507 212.082 679.1C211.963 678.693 211.78 678.309 211.533 677.948C211.284 677.579 210.965 677.285 210.576 677.066C210.184 676.838 209.726 676.739 209.201 676.768C209.019 676.771 208.829 676.793 208.633 676.834C208.444 676.873 208.273 676.915 208.119 676.96L203.916 678.19L205.691 684.273Z" fill="#007749"/>
<path d="M237.424 682.964L231.005 666.921L228.644 667.867L225.515 682.952L220.746 671.03L218.384 671.976L224.803 688.02L227.164 687.074L230.289 671.978L235.062 683.91L237.424 682.964Z" fill="#007749"/>
<path d="M246.601 679.01L238.525 663.733L244.699 660.469C244.848 660.391 245.036 660.301 245.262 660.199C245.485 660.09 245.705 660.001 245.922 659.932C246.842 659.618 247.702 659.534 248.504 659.68C249.312 659.823 250.037 660.159 250.679 660.688C251.321 661.218 251.859 661.893 252.292 662.713C252.73 663.541 252.986 664.369 253.062 665.197C253.138 666.026 253.008 666.814 252.67 667.563C252.34 668.307 251.786 668.971 251.009 669.554C250.825 669.687 250.624 669.82 250.406 669.954C250.194 670.084 250.017 670.187 249.876 670.261L245.919 672.353L248.818 677.838L246.601 679.01ZM244.808 670.253L248.68 668.206C248.822 668.131 248.974 668.042 249.136 667.938C249.305 667.83 249.459 667.718 249.595 667.6C249.992 667.255 250.253 666.868 250.38 666.439C250.502 666.003 250.525 665.566 250.447 665.128C250.369 664.689 250.231 664.282 250.033 663.908C249.834 663.533 249.578 663.193 249.263 662.889C248.945 662.578 248.573 662.354 248.148 662.216C247.718 662.072 247.25 662.067 246.741 662.2C246.563 662.24 246.382 662.299 246.197 662.379C246.02 662.454 245.861 662.529 245.719 662.604L241.847 664.651L244.808 670.253Z" fill="#007749"/>
<path d="M269.462 664.957C268.021 665.911 266.586 666.41 265.156 666.454C263.722 666.492 262.362 666.126 261.075 665.357C259.795 664.583 258.662 663.452 257.676 661.965C256.691 660.478 256.092 658.994 255.879 657.514C255.672 656.029 255.869 654.638 256.467 653.34C257.062 652.035 258.079 650.906 259.52 649.952C260.954 649.003 262.388 648.509 263.822 648.472C265.258 648.423 266.616 648.785 267.897 649.559C269.177 650.333 270.31 651.464 271.295 652.951C272.281 654.438 272.88 655.922 273.093 657.402C273.306 658.883 273.112 660.277 272.511 661.586C271.912 662.884 270.896 664.008 269.462 664.957ZM268.143 662.967C269.172 662.304 269.872 661.52 270.24 660.614C270.612 659.697 270.693 658.712 270.486 657.66C270.274 656.601 269.803 655.522 269.074 654.421C268.345 653.321 267.539 652.473 266.655 651.878C265.767 651.276 264.83 650.97 263.845 650.961C262.866 650.946 261.864 651.274 260.839 651.943C259.809 652.605 259.107 653.391 258.731 654.302C258.362 655.208 258.284 656.19 258.496 657.249C258.708 658.308 259.175 659.39 259.898 660.495C260.62 661.599 261.425 662.453 262.314 663.055C263.197 663.65 264.132 663.952 265.117 663.962C266.109 663.967 267.118 663.636 268.143 662.967Z" fill="#007749"/>
<path d="M281.479 660.387L278.203 656.293C278.666 655.923 278.954 655.503 279.07 655.032C279.18 654.555 279.16 654.044 279.01 653.498C278.862 652.941 278.624 652.363 278.298 651.763C277.978 651.158 277.611 650.546 277.196 649.925C276.642 649.078 276.089 648.259 275.54 647.47C274.991 646.669 274.416 645.848 273.816 645.008C273.221 644.162 272.572 643.242 271.868 642.247L280.521 635.352L289.839 646.999L290.843 646.198L294.119 650.293L292.15 651.865L290.35 649.616L281.64 656.573L283.439 658.822L281.479 660.387ZM281.419 653.724L287.88 648.564L280.038 638.763L275.155 642.648C275.661 643.37 276.146 644.053 276.609 644.696C277.073 645.339 277.532 645.997 277.987 646.667C278.443 647.327 278.924 648.044 279.43 648.817C279.911 649.559 280.306 650.2 280.616 650.741C280.921 651.276 281.138 651.778 281.268 652.248C281.404 652.712 281.454 653.205 281.419 653.724Z" fill="#007749"/>
<path d="M297.111 643.99L289.172 627.654L291.776 625.151L307.814 633.705L305.936 635.509L291.268 627.737L291.735 627.288L298.988 642.186L297.111 643.99ZM296.508 639.161L294.876 637.467L301.382 631.215L303.014 632.908L296.508 639.161Z" fill="#007749"/>
<path d="M163 315C243 337 391 442.5 308 617.5" stroke="#9DD39C"/>
<path d="M170 694C90 716 -58 821.5 25 996.5" stroke="#9DD39C"/>
</svg>
