<svg width="338" height="1103" viewBox="0 0 338 1103" fill="none" xmlns="http://www.w3.org/2000/svg">
<path d="M166.501 315C246.501 337 408.5 442.5 301 628.5" stroke="#9DD39C"/>
<path d="M189.5 689.5C94.0001 712 -58.5 815 24.5 990" stroke="#9DD39C"/>
<path d="M34.1602 266.098L46.016 253.527L47.666 255.083L43.3066 268.835L56.754 263.653L58.4215 265.226L46.574 277.789L44.8454 276.158L52.9551 267.559L40.7777 272.339L39.9483 271.557L43.9979 259.112L35.8801 267.72L34.1602 266.098Z" fill="#007749"/>
<path d="M54.0726 283.903L63.9325 269.713L72.9989 276.012L71.65 277.953L64.6433 273.085L61.877 277.066L67.7012 281.113L66.3523 283.054L60.5281 279.008L57.4811 283.393L64.4878 288.261L63.139 290.203L54.0726 283.903Z" fill="#007749"/>
<path d="M69.7149 294.575L77.9284 279.372L80.1667 280.581L81.5491 295.922L87.6521 284.625L89.8904 285.834L81.6769 301.037L79.4387 299.828L78.062 284.477L71.9532 295.784L69.7149 294.575Z" fill="#007749"/>
<path d="M94.6504 307.382C93.5003 306.918 92.5408 306.303 91.7719 305.536C91.0133 304.764 90.4816 303.89 90.1766 302.913C89.8821 301.932 89.8507 300.897 90.0824 299.809L92.6568 300.42C92.5068 301.498 92.7107 302.468 93.2685 303.332C93.8292 304.187 94.629 304.824 95.6678 305.243C96.3133 305.503 96.9473 305.643 97.5697 305.661C98.1951 305.671 98.7473 305.553 99.2263 305.306C99.7157 305.055 100.068 304.662 100.283 304.128C100.4 303.839 100.451 303.562 100.437 303.297C100.43 303.036 100.371 302.787 100.259 302.552C100.157 302.313 100.004 302.083 99.7992 301.863C99.6052 301.638 99.3778 301.421 99.1169 301.212L95.499 298.344C95.1462 298.064 94.7994 297.747 94.4586 297.394C94.1209 297.034 93.839 296.631 93.6128 296.186C93.3971 295.737 93.2729 295.243 93.2402 294.703C93.2105 294.157 93.3272 293.557 93.5904 292.904C93.9882 291.917 94.5769 291.184 95.3566 290.705C96.1468 290.221 97.0462 289.98 98.0549 289.981C99.0666 289.975 100.11 290.188 101.186 290.622C102.264 291.074 103.154 291.657 103.858 292.372C104.569 293.09 105.066 293.911 105.349 294.836C105.642 295.756 105.697 296.753 105.515 297.827L102.851 297.245C102.982 296.599 102.952 295.987 102.762 295.411C102.575 294.826 102.265 294.313 101.83 293.871C101.399 293.421 100.877 293.068 100.265 292.812C99.6769 292.558 99.0957 292.427 98.5208 292.42C97.9533 292.415 97.4509 292.528 97.0135 292.757C96.5836 292.989 96.2774 293.331 96.0949 293.784C95.9155 294.229 95.9003 294.641 96.0493 295.021C96.1983 295.4 96.4292 295.747 96.7418 296.063C97.0648 296.374 97.3946 296.658 97.7311 296.915L100.355 298.943C100.684 299.196 101.047 299.506 101.442 299.873C101.848 300.235 102.208 300.66 102.52 301.148C102.839 301.639 103.039 302.203 103.119 302.839C103.202 303.467 103.087 304.171 102.773 304.95C102.447 305.759 101.996 306.405 101.421 306.89C100.85 307.367 100.194 307.698 99.4557 307.883C98.7272 308.064 97.9502 308.108 97.1244 308.017C96.2987 307.926 95.474 307.714 94.6504 307.382Z" fill="#007749"/>
<path d="M115.552 314.723C113.886 314.265 112.566 313.512 111.593 312.465C110.622 311.41 110.003 310.144 109.736 308.669C109.478 307.196 109.585 305.599 110.058 303.879C110.531 302.159 111.255 300.732 112.23 299.598C113.213 298.466 114.391 297.698 115.763 297.296C117.137 296.885 118.657 296.909 120.323 297.367C122.244 297.895 123.699 298.818 124.689 300.135C125.687 301.455 126.207 303.004 126.249 304.783L123.615 304.768C123.611 303.514 123.284 302.441 122.633 301.549C121.99 300.659 121.009 300.032 119.69 299.669C118.51 299.345 117.453 299.341 116.52 299.657C115.587 299.973 114.788 300.554 114.124 301.4C113.468 302.248 112.965 303.309 112.615 304.582C112.257 305.852 112.144 307.02 112.274 308.085C112.412 309.152 112.802 310.059 113.442 310.808C114.09 311.558 115.005 312.096 116.185 312.42C117.504 312.783 118.667 312.746 119.675 312.31C120.693 311.868 121.522 311.113 122.164 310.044L124.436 311.378C123.491 312.886 122.252 313.951 120.72 314.576C119.195 315.202 117.472 315.251 115.552 314.723Z" fill="#007749"/>
<path d="M130.874 318.303L133.491 301.222L135.97 301.602L134.842 308.968L143.382 310.277L144.511 302.911L147.001 303.293L144.384 320.373L141.893 319.992L143.024 312.614L134.483 311.305L133.353 318.683L130.874 318.303Z" fill="#007749"/>
<path d="M33.5271 1016.54C32.61 1015.83 31.8881 1015.02 31.3615 1014.11C30.8397 1013.19 30.5318 1012.2 30.4378 1011.15C30.3438 1010.09 30.4791 1009 30.8438 1007.88C31.2085 1006.75 31.8245 1005.63 32.6916 1004.51C33.833 1003.04 35.0816 1001.98 36.4373 1001.34C37.7979 1000.7 39.1762 1000.46 40.5721 1000.63C41.9729 1000.79 43.2963 1001.36 44.5422 1002.32C46.1487 1003.57 47.1404 1004.93 47.5173 1006.42C47.9006 1007.91 47.7567 1009.45 47.0856 1011.03L44.7951 1009.83C45.1488 1008.8 45.2043 1007.8 44.9617 1006.84C44.7191 1005.87 44.1322 1005.02 43.2011 1004.29C42.2383 1003.53 41.2654 1003.12 40.2822 1003.06C39.3054 1003 38.3496 1003.24 37.4146 1003.78C36.4846 1004.32 35.6123 1005.11 34.7977 1006.14C33.983 1007.18 33.4332 1008.22 33.1483 1009.25C32.8683 1010.28 32.8819 1011.26 33.189 1012.2C33.5024 1013.14 34.1405 1013.99 35.1032 1014.74C35.8714 1015.36 36.6488 1015.73 37.4357 1015.87C38.2337 1016 39.0225 1015.9 39.8021 1015.58C40.5817 1015.25 41.3471 1014.7 42.0984 1013.92L39.4421 1011.87L40.6766 1010.27L45.439 1013.96C45.3635 1014.09 45.2554 1014.24 45.1148 1014.44C44.979 1014.63 44.8916 1014.75 44.8524 1014.8C43.8726 1016.06 42.7547 1017 41.4985 1017.62C40.2424 1018.23 38.929 1018.47 37.5584 1018.32C36.1927 1018.16 34.8489 1017.57 33.5271 1016.54Z" fill="#007749"/>
<path d="M45.1827 1024.85L54.7398 1010.45L63.9376 1016.56L62.6301 1018.53L55.5218 1013.81L52.8405 1017.85L58.7491 1021.77L57.4417 1023.74L51.5331 1019.82L48.5797 1024.26L55.688 1028.98L54.3805 1030.95L45.1827 1024.85Z" fill="#007749"/>
<path d="M65.9417 1038.53C64.8705 1037.9 64.0096 1037.16 63.3592 1036.29C62.7197 1035.41 62.3195 1034.47 62.1585 1033.46C62.0085 1032.45 62.1265 1031.42 62.5126 1030.38L64.9721 1031.35C64.6684 1032.4 64.7303 1033.39 65.1579 1034.32C65.5895 1035.25 66.2891 1036 67.2567 1036.56C67.858 1036.91 68.4653 1037.14 69.0786 1037.25C69.6959 1037.35 70.2594 1037.31 70.769 1037.13C71.2895 1036.96 71.6948 1036.62 71.9849 1036.12C72.142 1035.85 72.2326 1035.58 72.2567 1035.32C72.2877 1035.06 72.2646 1034.81 72.1874 1034.56C72.1211 1034.31 72.0026 1034.06 71.8321 1033.81C71.6725 1033.56 71.4787 1033.31 71.2506 1033.07L68.0838 1029.71C67.775 1029.38 67.4775 1029.02 67.1912 1028.62C66.9089 1028.21 66.6879 1027.77 66.5282 1027.3C66.3795 1026.83 66.3278 1026.32 66.3731 1025.78C66.4225 1025.23 66.6244 1024.66 66.979 1024.05C67.5148 1023.13 68.203 1022.49 69.0437 1022.13C69.8953 1021.76 70.82 1021.65 71.818 1021.8C72.8201 1021.94 73.8222 1022.3 74.8243 1022.89C75.8253 1023.49 76.6225 1024.19 77.2159 1025C77.8162 1025.82 78.1896 1026.7 78.3362 1027.66C78.4937 1028.61 78.4047 1029.6 78.0693 1030.64L75.5174 1029.68C75.7401 1029.06 75.7989 1028.45 75.694 1027.85C75.593 1027.25 75.3596 1026.69 74.9938 1026.19C74.632 1025.69 74.1663 1025.26 73.5967 1024.92C73.0518 1024.58 72.4955 1024.37 71.9276 1024.28C71.3667 1024.19 70.8534 1024.23 70.3876 1024.4C69.9287 1024.57 69.5763 1024.86 69.3306 1025.28C69.0888 1025.7 69.0144 1026.1 69.1072 1026.5C69.2001 1026.9 69.3784 1027.27 69.6423 1027.63C69.917 1027.98 70.2025 1028.31 70.4986 1028.62L72.803 1031C73.0922 1031.3 73.4061 1031.66 73.7448 1032.08C74.0945 1032.49 74.3886 1032.97 74.6272 1033.49C74.8727 1034.03 74.9892 1034.61 74.9767 1035.25C74.9683 1035.89 74.7525 1036.57 74.3295 1037.29C73.8904 1038.05 73.3516 1038.62 72.7131 1039.02C72.0786 1039.41 71.3824 1039.64 70.6247 1039.72C69.8778 1039.79 69.1024 1039.72 68.2984 1039.51C67.4945 1039.3 66.7089 1038.98 65.9417 1038.53Z" fill="#007749"/>
<path d="M84.9565 1049.01C83.7496 1048.4 82.8064 1047.61 82.1269 1046.65C81.4582 1045.69 81.0885 1044.63 81.018 1043.47C80.9511 1042.31 81.2242 1041.12 81.8372 1039.9L86.7543 1030.17L89.0306 1031.3L84.1676 1040.93C83.8358 1041.59 83.6544 1042.23 83.6233 1042.84C83.5923 1043.45 83.6777 1044.02 83.8795 1044.54C84.0814 1045.06 84.3675 1045.52 84.738 1045.93C85.1156 1046.33 85.5437 1046.66 86.0221 1046.9C86.5077 1047.14 87.0223 1047.3 87.5659 1047.36C88.1202 1047.41 88.6678 1047.36 89.2086 1047.22C89.7494 1047.07 90.2532 1046.8 90.7199 1046.41C91.1937 1046.02 91.5947 1045.5 91.9228 1044.85L96.7858 1035.22L99.0567 1036.37L94.1342 1046.11C93.5247 1047.32 92.7322 1048.24 91.7565 1048.88C90.7808 1049.52 89.7026 1049.85 88.5218 1049.88C87.3517 1049.91 86.1633 1049.62 84.9565 1049.01Z" fill="#007749"/>
<path d="M98.1897 1055.17L105.015 1039.29L107.352 1040.3L110.097 1055.45L115.168 1043.66L117.505 1044.66L110.68 1060.54L108.343 1059.53L105.603 1044.36L100.527 1056.17L98.1897 1055.17Z" fill="#007749"/>
<path d="M118.208 1063.64L123.98 1047.36L129.081 1049.16C129.232 1049.22 129.509 1049.32 129.914 1049.47C130.326 1049.63 130.711 1049.8 131.069 1049.98C132.288 1050.59 133.197 1051.43 133.797 1052.49C134.404 1053.55 134.725 1054.74 134.758 1056.06C134.794 1057.37 134.567 1058.72 134.078 1060.1C133.587 1061.49 132.913 1062.68 132.056 1063.69C131.203 1064.68 130.205 1065.4 129.063 1065.85C127.931 1066.29 126.7 1066.36 125.37 1066.07C124.974 1065.99 124.567 1065.88 124.15 1065.74C123.74 1065.6 123.46 1065.5 123.309 1065.45L118.208 1063.64ZM121.426 1062.25L124.106 1063.2C124.363 1063.29 124.671 1063.39 125.031 1063.5C125.39 1063.61 125.714 1063.69 126.002 1063.74C126.887 1063.88 127.685 1063.76 128.396 1063.38C129.116 1063 129.743 1062.44 130.276 1061.71C130.808 1060.97 131.239 1060.14 131.567 1059.21C131.907 1058.25 132.096 1057.32 132.136 1056.42C132.179 1055.51 132.037 1054.69 131.712 1053.95C131.397 1053.21 130.859 1052.62 130.098 1052.18C129.845 1052.04 129.539 1051.89 129.18 1051.76C128.831 1051.62 128.532 1051.5 128.283 1051.41L125.603 1050.46L121.426 1062.25Z" fill="#007749"/>
<path d="M138.278 1070.65L142.899 1053.99L145.315 1054.67L143.323 1061.85L151.648 1064.16L153.641 1056.98L156.069 1057.65L151.448 1074.3L149.02 1073.63L151.016 1066.43L142.691 1064.12L140.695 1071.32L138.278 1070.65Z" fill="#007749"/>
<path d="M159.661 1076.38L163.065 1059.44L173.889 1061.61L173.423 1063.93L165.058 1062.25L164.103 1067L171.056 1068.4L170.59 1070.72L163.637 1069.32L162.585 1074.55L170.95 1076.23L170.484 1078.55L159.661 1076.38Z" fill="#007749"/>
<path d="M177.191 1079.72L179.683 1062.62L182.165 1062.98L179.673 1080.08L177.191 1079.72Z" fill="#007749"/>
<path d="M192.186 1081.65L193.447 1066.79L187.72 1066.31L187.919 1063.95L201.873 1065.13L201.673 1067.49L195.946 1067L194.685 1081.87L192.186 1081.65Z" fill="#007749"/>
<path d="M208.327 691.431L205.478 674.387L207.987 673.968L218.496 685.229L216.379 672.565L218.888 672.146L221.737 689.189L219.228 689.608L208.717 678.335L210.836 691.011L208.327 691.431Z" fill="#007749"/>
<path d="M229.521 687.511L228.921 669.351L232.318 668.122L243.479 682.46L241.03 683.346L230.801 670.279L231.41 670.058L231.969 686.625L229.521 687.511ZM230.935 682.852L230.135 680.64L238.62 677.569L239.421 679.781L230.935 682.852Z" fill="#007749"/>
<path d="M254.091 677.561L247.05 664.411L241.983 667.125L240.867 665.041L253.213 658.43L254.328 660.514L249.261 663.228L256.302 676.377L254.091 677.561Z" fill="#007749"/>
<path d="M273.466 666.134C272.382 666.942 271.258 667.435 270.094 667.614C268.932 667.782 267.818 667.639 266.753 667.186C265.682 666.727 264.74 665.952 263.928 664.862L257.409 656.116L259.442 654.586L265.889 663.236C266.328 663.826 266.815 664.271 267.349 664.572C267.882 664.873 268.428 665.05 268.986 665.103C269.544 665.156 270.086 665.106 270.611 664.954C271.143 664.797 271.624 664.559 272.054 664.239C272.49 663.914 272.856 663.521 273.152 663.061C273.449 662.59 273.652 662.079 273.761 661.529C273.87 660.979 273.853 660.408 273.711 659.816C273.575 659.218 273.29 658.628 272.855 658.044L266.408 649.394L268.448 647.874L274.974 656.63C275.781 657.714 276.252 658.835 276.387 659.992C276.521 661.149 276.338 662.263 275.839 663.333C275.341 664.393 274.55 665.326 273.466 666.134Z" fill="#007749"/>
<path d="M285.402 656.296L273.08 644.182L277.976 639.202C278.094 639.082 278.245 638.939 278.431 638.774C278.61 638.602 278.793 638.451 278.978 638.319C279.76 637.741 280.555 637.401 281.363 637.298C282.176 637.189 282.969 637.29 283.741 637.6C284.513 637.91 285.23 638.39 285.892 639.041C286.873 640.006 287.473 641.09 287.693 642.293C287.907 643.49 287.609 644.678 286.798 645.856L286.169 646.667L282.736 650.159L287.16 654.508L285.402 656.296ZM292.486 649.091L285.082 646.592L286.395 644.332L294.496 647.046L292.486 649.091ZM281.042 648.493L284.113 645.369C284.225 645.255 284.343 645.124 284.466 644.976C284.595 644.822 284.706 644.669 284.801 644.515C285.075 644.066 285.207 643.618 285.197 643.171C285.182 642.718 285.071 642.295 284.864 641.901C284.657 641.507 284.402 641.161 284.1 640.864C283.797 640.566 283.45 640.32 283.058 640.126C282.661 639.926 282.238 639.825 281.791 639.823C281.339 639.815 280.89 639.952 280.446 640.233C280.288 640.325 280.133 640.436 279.982 640.568C279.836 640.694 279.707 640.813 279.595 640.927L276.524 644.051L281.042 648.493Z" fill="#007749"/>
</svg>
