<svg width="100" height="100" viewBox="0 0 100 100" fill="none" xmlns="http://www.w3.org/2000/svg">
<path d="M0 0L50 -4.37114e-06C77.6142 -6.78525e-06 100 22.3858 100 50C100 77.6142 77.6142 100 50 100C22.3858 100 6.78525e-06 77.6142 4.37114e-06 50L0 0Z" fill="#D2D2C8"/>
<path d="M32 66.7051L32.959 60.0365C34.877 60.1925 36.4353 59.9 37.6341 59.159C38.8328 58.3791 39.652 57.2872 40.0915 55.8832C40.571 54.4403 40.6709 52.7829 40.3912 50.911L39.9555 50.911C35.5618 50.911 32 47.3492 32 42.9555C32 38.5618 35.5618 35 39.9555 35L40.1514 35C44.6533 35 48.3028 38.6495 48.3028 43.1514L48.3028 50.911C48.3028 56.5267 46.9643 60.7774 44.2871 63.6633C41.6099 66.5491 37.5142 67.563 32 66.7051ZM53.6972 66.7051L54.6562 60.0365C56.5741 60.1925 58.1325 59.9 59.3312 59.159C60.53 58.3791 61.3491 57.2872 61.7886 55.8832C62.2681 54.4403 62.368 52.7829 62.0883 50.911L61.6527 50.911C57.259 50.911 53.6972 47.3492 53.6972 42.9555C53.6972 38.5618 57.259 35 61.6527 35L61.8486 35C66.3505 35 70 38.6495 70 43.1514L70 50.911C70 56.5267 68.6614 60.7774 65.9842 63.6633C63.307 66.5491 59.2114 67.563 53.6972 66.7051Z" fill="white"/>
</svg>
