<svg width="1092" height="375" viewBox="0 0 1092 375" fill="none" xmlns="http://www.w3.org/2000/svg">
<path d="M463 40C390 78 365.702 130.934 347.629 200.959C329.556 270.985 287.51 326.141 225 344" stroke="#9DD39C"/>
<path d="M634 40C702 77 727.927 112.974 746 183C764.073 253.026 787 302 852 336" stroke="#9DD39C"/>
<path d="M480.51 41.2797L473.906 25.3115L486.603 20.0604L493.207 36.0286L490.889 36.9871L485.189 23.2034L477.127 26.5375L482.828 40.3212L480.51 41.2797Z" fill="#007749"/>
<path d="M501.63 33.1852L497.18 16.488L503.929 14.6896C504.091 14.6463 504.294 14.6005 504.538 14.5521C504.78 14.4959 505.014 14.4584 505.241 14.4393C506.207 14.339 507.065 14.4499 507.813 14.7721C508.569 15.0923 509.2 15.5822 509.707 16.2419C510.214 16.9016 510.587 17.6798 510.826 18.5765C511.067 19.4809 511.132 20.3454 511.021 21.1699C510.909 21.9944 510.605 22.7336 510.109 23.3875C509.62 24.0393 508.932 24.5622 508.043 24.9563C507.835 25.0449 507.609 25.1299 507.366 25.2113C507.131 25.2906 506.935 25.3508 506.781 25.392L502.456 26.5446L504.053 32.5394L501.63 33.1852ZM501.844 24.2488L506.076 23.1209C506.231 23.0797 506.399 23.0266 506.58 22.9617C506.769 22.8948 506.944 22.8193 507.104 22.7353C507.567 22.4875 507.909 22.1689 508.128 21.7793C508.345 21.382 508.465 20.961 508.487 20.5163C508.509 20.0716 508.466 19.6444 508.356 19.2347C508.247 18.825 508.073 18.4367 507.835 18.0697C507.594 17.695 507.282 17.3933 506.898 17.1644C506.512 16.9278 506.056 16.8174 505.531 16.8333C505.348 16.8323 505.159 16.8497 504.961 16.8858C504.771 16.9198 504.599 16.9574 504.445 16.9986L500.212 18.1264L501.844 24.2488Z" fill="#007749"/>
<path d="M535.162 26.5548L532.892 9.42445L530.37 9.75856L523.623 23.6047L521.936 10.876L519.414 11.2101L521.684 28.3404L524.206 28.0063L530.952 14.1482L532.64 26.8889L535.162 26.5548Z" fill="#007749"/>
<path d="M543.188 26.0427L543.137 8.76278L550.121 8.74188C550.289 8.74137 550.497 8.74875 550.745 8.76401C550.993 8.77127 551.229 8.79456 551.453 8.83389C552.413 8.98301 553.214 9.30862 553.856 9.8107C554.505 10.3128 554.991 10.9473 555.314 11.7143C555.636 12.4814 555.798 13.3289 555.801 14.2569C555.804 15.1929 555.647 16.0454 555.329 16.8143C555.011 17.5833 554.529 18.2207 553.883 18.7267C553.244 19.2326 552.445 19.563 551.486 19.7178C551.262 19.7505 551.022 19.7752 550.766 19.792C550.518 19.8087 550.314 19.8173 550.154 19.8178L545.678 19.8312L545.696 26.0352L543.188 26.0427ZM545.671 17.4552L550.051 17.4421C550.211 17.4416 550.387 17.4331 550.579 17.4165C550.779 17.3999 550.967 17.3714 551.142 17.3309C551.654 17.2093 552.065 16.9881 552.376 16.6672C552.687 16.3382 552.91 15.9616 553.045 15.5372C553.18 15.1127 553.247 14.6885 553.245 14.2645C553.244 13.8405 553.175 13.4208 553.038 13.0052C552.9 12.5816 552.675 12.2102 552.362 11.8912C552.049 11.5641 551.637 11.3414 551.124 11.2229C550.948 11.1754 550.76 11.144 550.56 11.1286C550.368 11.1131 550.192 11.1057 550.032 11.1062L545.652 11.1193L545.671 17.4552Z" fill="#007749"/>
<path d="M570.915 27.7242C569.201 27.5023 567.79 26.9405 566.68 26.0386C565.572 25.1288 564.783 23.9619 564.314 22.5379C563.853 21.1149 563.737 19.5188 563.966 17.7496C564.195 15.9804 564.714 14.4664 565.522 13.2077C566.338 11.9501 567.397 11.0265 568.7 10.4368C570.003 9.83915 571.512 9.65125 573.226 9.87307C574.932 10.0939 576.339 10.6592 577.447 11.569C578.564 12.4719 579.354 13.6348 579.815 15.0578C580.276 16.4807 580.392 18.0768 580.163 19.8461C579.934 21.6153 579.415 23.1293 578.607 24.3879C577.799 25.6466 576.739 26.5742 575.428 27.1708C574.125 27.7605 572.621 27.9449 570.915 27.7242ZM571.222 25.3559C572.434 25.5289 573.476 25.3935 574.348 24.9498C575.229 24.4992 575.935 23.8082 576.467 22.8768C577 21.9374 577.352 20.8132 577.521 19.5041C577.69 18.195 577.636 17.0264 577.358 15.9981C577.08 14.962 576.573 14.1178 575.834 13.4656C575.104 12.8145 574.132 12.4064 572.919 12.2413C571.707 12.0683 570.661 12.2032 569.781 12.6459C568.909 13.0896 568.207 13.7811 567.674 14.7205C567.141 15.6598 566.785 16.7835 566.608 18.0916C566.431 19.3996 566.481 20.5717 566.758 21.6079C567.036 22.6361 567.545 23.4763 568.283 24.1285C569.029 24.7817 570.009 25.1909 571.222 25.3559Z" fill="#007749"/>
<path d="M584.547 32.4342L585.928 27.3752C586.499 27.5311 587.009 27.5168 587.457 27.3323C587.907 27.1402 588.309 26.8227 588.662 26.38C589.025 25.9318 589.353 25.3993 589.645 24.7826C589.946 24.168 590.225 23.5102 590.482 22.8093C590.84 21.8622 591.177 20.934 591.491 20.0247C591.816 19.1098 592.141 18.1619 592.466 17.1811C592.8 16.2023 593.161 15.1359 593.551 13.9817L604.221 16.9063L600.294 31.296L601.533 31.6341L600.152 36.6931L597.721 36.0296L598.479 33.2512L587.725 30.3161L586.967 33.0945L584.547 32.4342ZM589.898 28.4589L597.875 30.6357L601.179 18.5266L595.163 16.8721C594.877 17.7063 594.611 18.5002 594.364 19.2537C594.116 20.0072 593.856 20.7653 593.581 21.528C593.317 22.285 593.021 23.0957 592.694 23.9601C592.377 24.7858 592.091 25.4832 591.836 26.0522C591.584 26.6135 591.306 27.085 591.003 27.4666C590.707 27.8504 590.339 28.1811 589.898 28.4589Z" fill="#007749"/>
<path d="M606.701 35.945L618.577 22.1939L621.907 23.5943L620.384 41.7L617.984 40.6905L619.329 24.1506L619.927 24.4018L609.101 36.9545L606.701 35.945ZM610.901 33.4805L611.813 31.3125L620.131 34.8112L619.219 36.9792L610.901 33.4805Z" fill="#007749"/>
<path d="M866.74 353.432C865.591 353.086 864.642 352.616 863.894 352.022C863.145 351.429 862.565 350.777 862.152 350.068C861.749 349.353 861.491 348.644 861.377 347.942L863.877 347.217C863.925 347.724 864.072 348.232 864.32 348.741C864.575 349.253 864.959 349.724 865.473 350.155C865.996 350.58 866.683 350.921 867.533 351.177C868.383 351.434 869.122 351.519 869.75 351.432C870.38 351.338 870.894 351.117 871.291 350.769C871.698 350.416 871.984 349.967 872.148 349.423C872.34 348.788 872.319 348.247 872.086 347.8C871.863 347.349 871.497 346.971 870.987 346.666C870.479 346.355 869.907 346.09 869.271 345.873C868.739 345.696 868.356 345.568 868.121 345.489C867.888 345.402 867.73 345.345 867.645 345.32C867.569 345.297 867.496 345.275 867.427 345.254L868.113 342.979C868.197 343.005 868.343 343.049 868.55 343.111C868.764 343.176 868.986 343.243 869.216 343.312C869.448 343.374 869.638 343.423 869.786 343.459C870.75 343.699 871.586 343.697 872.295 343.451C873.012 343.208 873.487 342.699 873.72 341.926C873.954 341.152 873.85 340.457 873.41 339.839C872.977 339.224 872.297 338.777 871.371 338.497C870.49 338.231 869.67 338.206 868.912 338.42C868.156 338.626 867.517 338.973 866.994 339.458L865.728 337.259C866.51 336.659 867.458 336.247 868.57 336.023C869.682 335.798 870.866 335.876 872.122 336.255C872.834 336.47 873.495 336.773 874.103 337.166C874.714 337.55 875.226 338.014 875.639 338.556C876.052 339.099 876.323 339.711 876.451 340.393C876.59 341.07 876.538 341.811 876.295 342.615C876.053 343.419 875.668 344.097 875.143 344.649C874.625 345.203 874.036 345.589 873.377 345.808C874.049 346.32 874.508 346.947 874.752 347.689C874.998 348.424 874.979 349.262 874.695 350.204C874.376 351.261 873.821 352.092 873.028 352.697C872.246 353.296 871.308 353.661 870.216 353.791C869.132 353.924 867.973 353.804 866.74 353.432Z" fill="#007749"/>
<path d="M880.169 359.841L881.247 354.709C881.826 354.831 882.334 354.786 882.771 354.575C883.209 354.357 883.591 354.016 883.917 353.553C884.253 353.084 884.548 352.533 884.804 351.9C885.067 351.269 885.307 350.596 885.522 349.881C885.824 348.914 886.104 347.967 886.364 347.041C886.634 346.109 886.902 345.143 887.169 344.145C887.443 343.148 887.741 342.062 888.061 340.887L898.887 343.173L895.821 357.77L897.077 358.034L895.999 363.166L893.533 362.648L894.125 359.829L883.215 357.538L882.623 360.356L880.169 359.841ZM885.275 355.555L893.366 357.254L895.946 344.971L889.842 343.676C889.606 344.526 889.388 345.334 889.186 346.101C888.984 346.868 888.768 347.64 888.54 348.418C888.32 349.189 888.073 350.016 887.798 350.898C887.531 351.741 887.287 352.454 887.067 353.037C886.848 353.613 886.598 354.1 886.318 354.499C886.046 354.899 885.698 355.252 885.275 355.555Z" fill="#007749"/>
<path d="M911.58 362.805C909.864 362.603 908.446 362.057 907.326 361.168C906.207 360.271 905.405 359.114 904.92 357.695C904.442 356.278 904.308 354.683 904.516 352.911C904.725 351.14 905.226 349.62 906.02 348.352C906.821 347.085 907.87 346.149 909.166 345.544C910.462 344.932 911.968 344.726 913.685 344.928C915.393 345.13 916.806 345.679 917.925 346.576C919.053 347.466 919.855 348.619 920.333 350.037C920.81 351.454 920.945 353.049 920.736 354.821C920.528 356.593 920.027 358.112 919.233 359.38C918.439 360.648 917.39 361.588 916.086 362.2C914.79 362.804 913.288 363.006 911.58 362.805ZM911.859 360.433C913.073 360.592 914.113 360.445 914.98 359.991C915.856 359.531 916.555 358.831 917.076 357.894C917.598 356.948 917.936 355.82 918.091 354.509C918.245 353.198 918.177 352.03 917.887 351.006C917.598 349.973 917.08 349.134 916.334 348.491C915.596 347.848 914.62 347.451 913.405 347.3C912.192 347.141 911.147 347.288 910.272 347.741C909.405 348.195 908.711 348.894 908.189 349.84C907.667 350.785 907.324 351.913 907.162 353.223C907 354.533 907.063 355.704 907.353 356.737C907.643 357.762 908.161 358.596 908.907 359.24C909.66 359.885 910.645 360.282 911.859 360.433Z" fill="#007749"/>
<path d="M927.594 363.912L928.134 346.64L935.114 346.859C935.282 346.864 935.49 346.878 935.737 346.902C935.985 346.918 936.22 346.949 936.443 346.996C937.397 347.178 938.187 347.531 938.811 348.055C939.443 348.579 939.907 349.229 940.202 350.007C940.498 350.785 940.632 351.637 940.603 352.565C940.574 353.5 940.387 354.347 940.043 355.105C939.699 355.862 939.196 356.483 938.532 356.966C937.877 357.45 937.067 357.753 936.103 357.875C935.878 357.9 935.637 357.916 935.381 357.924C935.132 357.932 934.928 357.934 934.768 357.929L930.294 357.789L930.101 363.99L927.594 363.912ZM930.369 355.414L934.747 355.551C934.907 355.556 935.083 355.554 935.275 355.544C935.475 355.534 935.664 355.512 935.841 355.477C936.357 355.373 936.776 355.166 937.097 354.856C937.42 354.538 937.655 354.169 937.804 353.75C937.954 353.33 938.035 352.909 938.048 352.485C938.061 352.061 938.006 351.639 937.883 351.219C937.761 350.791 937.549 350.412 937.247 350.083C936.945 349.745 936.54 349.508 936.032 349.372C935.858 349.319 935.671 349.281 935.472 349.259C935.28 349.237 935.104 349.223 934.945 349.218L930.567 349.082L930.369 355.414Z" fill="#007749"/>
<path d="M956.063 364.214C954.338 364.309 952.847 364.014 951.592 363.329C950.336 362.637 949.348 361.633 948.627 360.319C947.914 359.004 947.509 357.456 947.411 355.674C947.314 353.893 947.548 352.31 948.113 350.925C948.686 349.539 949.559 348.438 950.732 347.621C951.905 346.795 953.354 346.336 955.079 346.241C956.797 346.147 958.283 346.446 959.539 347.139C960.802 347.823 961.79 348.822 962.503 350.137C963.216 351.452 963.622 353 963.719 354.782C963.817 356.563 963.583 358.146 963.018 359.531C962.452 360.916 961.58 362.021 960.399 362.847C959.226 363.664 957.781 364.12 956.063 364.214ZM955.933 361.83C957.156 361.779 958.156 361.456 958.932 360.86C959.716 360.257 960.285 359.448 960.638 358.435C960.991 357.415 961.131 356.245 961.059 354.927C960.987 353.609 960.72 352.47 960.259 351.51C959.797 350.542 959.144 349.804 958.299 349.298C957.462 348.791 956.432 348.567 955.21 348.626C953.987 348.676 952.983 349 952.198 349.596C951.422 350.191 950.857 350.999 950.504 352.02C950.152 353.041 950.007 354.21 950.071 355.529C950.136 356.847 950.399 357.991 950.86 358.959C951.321 359.919 951.974 360.652 952.819 361.159C953.672 361.665 954.71 361.889 955.933 361.83Z" fill="#007749"/>
<path d="M972.023 362.555L969.634 345.441L976.361 344.502C977.447 344.351 978.389 344.445 979.188 344.786C979.986 345.127 980.621 345.624 981.092 346.277C981.562 346.922 981.851 347.633 981.959 348.41C982.091 349.353 981.97 350.193 981.596 350.932C981.231 351.67 980.673 352.216 979.923 352.571L979.818 351.992C980.949 352.109 981.862 352.519 982.558 353.221C983.253 353.916 983.672 354.782 983.817 355.82C983.958 356.826 983.878 357.73 983.578 358.531C983.285 359.331 982.784 359.995 982.074 360.522C981.371 361.04 980.477 361.375 979.392 361.527L972.023 362.555ZM974.212 359.838L978.681 359.215C979.244 359.136 979.732 358.959 980.146 358.683C980.567 358.406 980.877 358.052 981.076 357.62C981.281 357.18 981.345 356.682 981.267 356.128C981.195 355.613 981.016 355.165 980.728 354.785C980.448 354.396 980.077 354.113 979.616 353.935C979.162 353.748 978.65 353.694 978.079 353.774L973.456 354.419L974.212 359.838ZM973.129 352.078L977.301 351.495C977.76 351.431 978.16 351.283 978.499 351.049C978.845 350.807 979.1 350.497 979.265 350.119C979.437 349.731 979.489 349.288 979.419 348.789C979.326 348.123 979.028 347.607 978.525 347.241C978.021 346.875 977.397 346.744 976.652 346.848L972.481 347.431L973.129 352.078Z" fill="#007749"/>
<path d="M992.003 359.44L988.253 342.572L990.701 342.028L992.047 348.084L996.417 347.113C996.573 347.078 996.774 347.041 997.019 347.003C997.271 346.955 997.506 346.928 997.726 346.92C998.696 346.86 999.548 347.006 1000.28 347.36C1001.02 347.711 1001.63 348.227 1002.11 348.907C1002.6 349.585 1002.95 350.382 1003.15 351.295C1003.35 352.201 1003.38 353.064 1003.23 353.883C1003.09 354.702 1002.75 355.428 1002.23 356.06C1001.71 356.691 1001 357.186 1000.09 357.544C999.884 357.623 999.663 357.696 999.424 357.766C999.186 357.835 998.984 357.888 998.82 357.925L992.003 359.44ZM993.938 356.588L998.214 355.638C998.362 355.605 998.528 355.56 998.712 355.502C998.904 355.443 999.08 355.371 999.242 355.286C999.723 355.056 1000.08 354.752 1000.31 354.374C1000.54 353.986 1000.68 353.574 1000.72 353.139C1000.77 352.693 1000.75 352.264 1000.65 351.85C1000.56 351.436 1000.4 351.038 1000.17 350.655C999.942 350.271 999.643 349.956 999.269 349.712C998.901 349.457 998.45 349.328 997.916 349.324C997.734 349.315 997.544 349.329 997.347 349.364C997.157 349.39 996.987 349.42 996.839 349.453L992.563 350.403L993.938 356.588Z" fill="#007749"/>
<path d="M1012.65 354.467L1007.59 337.943L1018.15 334.713L1018.84 336.974L1010.68 339.469L1012.1 344.105L1018.88 342.031L1019.58 344.291L1012.79 346.366L1014.36 351.472L1022.52 348.976L1023.21 351.237L1012.65 354.467Z" fill="#007749"/>
<path d="M88.662 359.271L90.8745 351.766L91.1096 352.624C90.5307 352.862 89.8209 352.978 88.9803 352.972C88.1419 352.958 87.27 352.818 86.3645 352.551C84.9526 352.135 83.9038 351.534 83.2181 350.748C82.5423 349.956 82.1567 349.029 82.0612 347.967C81.9734 346.907 82.1116 345.759 82.4758 344.524L83.857 339.839L86.2971 340.559L85.1434 344.472C84.9556 345.109 84.8229 345.729 84.7453 346.331C84.6677 346.934 84.6926 347.5 84.8201 348.03C84.9498 348.552 85.2255 349.017 85.6474 349.425C86.0715 349.825 86.6864 350.144 87.4921 350.381C88.4283 350.657 89.2743 350.744 90.0301 350.642C90.7882 350.532 91.3639 350.347 91.7573 350.088L90.9933 351.364L93.5485 342.696L95.9772 343.412L91.0907 359.987L88.662 359.271Z" fill="#007749"/>
<path d="M99.4879 362.002L102.835 345.05L113.666 347.188L113.208 349.508L104.838 347.855L103.899 352.611L110.856 353.985L110.398 356.304L103.441 354.93L102.406 360.169L110.777 361.822L110.319 364.141L99.4879 362.002Z" fill="#007749"/>
<path d="M117.271 365.305L117.482 363.168C117.884 363.248 118.221 363.261 118.491 363.207C118.77 363.146 119.014 363.002 119.221 362.773C119.43 362.536 119.621 362.185 119.796 361.72C119.978 361.256 120.171 360.652 120.373 359.908C120.644 358.962 120.889 357.986 121.109 356.979C121.329 355.971 121.529 354.97 121.708 353.975C121.895 352.973 122.064 352.004 122.212 351.071C122.361 350.137 122.491 349.269 122.602 348.468L133.887 349.585L132.186 366.781L129.69 366.534L131.159 351.691L124.71 351.052C124.607 351.685 124.489 352.393 124.355 353.176C124.222 353.958 124.071 354.788 123.904 355.664C123.737 356.539 123.547 357.441 123.335 358.369C123.131 359.297 122.894 360.226 122.625 361.156C122.402 361.954 122.154 362.669 121.882 363.302C121.611 363.934 121.278 364.452 120.885 364.855C120.492 365.25 120.006 365.491 119.426 365.579C118.846 365.674 118.127 365.583 117.271 365.305Z" fill="#007749"/>
<path d="M148.914 367.573C147.187 367.585 145.712 367.219 144.491 366.476C143.27 365.724 142.33 364.674 141.673 363.327C141.024 361.979 140.693 360.413 140.681 358.63C140.668 356.846 140.978 355.275 141.608 353.919C142.247 352.563 143.172 351.504 144.383 350.744C145.593 349.976 147.063 349.585 148.791 349.574C150.511 349.562 151.981 349.932 153.202 350.683C154.432 351.427 155.371 352.472 156.02 353.82C156.669 355.167 157 356.733 157.012 358.517C157.025 360.301 156.715 361.871 156.085 363.228C155.454 364.584 154.529 365.646 153.311 366.415C152.1 367.175 150.634 367.561 148.914 367.573ZM148.898 365.185C150.122 365.193 151.136 364.918 151.94 364.36C152.753 363.795 153.359 363.014 153.76 362.02C154.161 361.017 154.357 359.855 154.348 358.535C154.339 357.216 154.127 356.065 153.713 355.084C153.298 354.095 152.681 353.327 151.861 352.78C151.049 352.234 150.031 351.961 148.807 351.961C147.583 351.954 146.565 352.229 145.753 352.786C144.948 353.344 144.346 354.124 143.945 355.127C143.544 356.13 143.344 357.291 143.345 358.611C143.346 359.931 143.554 361.086 143.969 362.075C144.383 363.056 145.001 363.82 145.82 364.366C146.648 364.913 147.674 365.186 148.898 365.185Z" fill="#007749"/>
<path d="M164.975 366.602L163.155 349.418L169.91 348.703C170.999 348.587 171.938 348.713 172.725 349.081C173.512 349.448 174.13 349.965 174.579 350.634C175.027 351.294 175.292 352.014 175.375 352.794C175.475 353.741 175.326 354.577 174.929 355.303C174.539 356.028 173.963 356.556 173.202 356.886L173.116 356.304C174.242 356.458 175.142 356.898 175.814 357.623C176.485 358.34 176.876 359.22 176.986 360.262C177.093 361.272 176.983 362.173 176.657 362.964C176.338 363.754 175.816 364.4 175.088 364.904C174.369 365.398 173.464 365.703 172.374 365.819L164.975 366.602ZM167.253 363.959L171.74 363.484C172.305 363.424 172.799 363.264 173.222 363.002C173.653 362.739 173.974 362.395 174.187 361.97C174.406 361.537 174.486 361.042 174.427 360.485C174.373 359.968 174.208 359.514 173.934 359.125C173.666 358.727 173.305 358.431 172.85 358.238C172.402 358.036 171.892 357.966 171.319 358.026L166.677 358.518L167.253 363.959ZM166.428 356.167L170.617 355.723C171.078 355.675 171.482 355.539 171.829 355.318C172.183 355.087 172.448 354.785 172.626 354.413C172.811 354.031 172.877 353.59 172.824 353.088C172.753 352.42 172.472 351.895 171.981 351.512C171.49 351.13 170.871 350.978 170.123 351.058L165.934 351.501L166.428 356.167Z" fill="#007749"/>
<path d="M185.074 364.063L181.726 347.111L192.557 344.972L193.015 347.291L184.645 348.944L185.584 353.7L192.541 352.326L192.999 354.646L186.042 356.02L187.076 361.258L195.447 359.606L195.904 361.925L185.074 364.063Z" fill="#007749"/>
<path d="M203.905 359.988L199.019 343.414L201.424 342.704L203.705 350.439L208.365 340.658L211.358 339.776L206.411 350.029L216.785 356.191L213.7 357.101L203.976 351.36L206.311 359.279L203.905 359.988Z" fill="#007749"/>
</svg>
