<svg width="1092" height="378" viewBox="0 0 1092 378" fill="none" xmlns="http://www.w3.org/2000/svg">
<path d="M481.5 36.5C407 67 365.702 132.934 347.629 202.959C329.556 272.985 287.51 328.141 225 346" stroke="#9DD39C"/>
<path d="M610.5 36C683 62 727.927 114.974 746 185C764.073 255.026 787 304 852 338" stroke="#9DD39C"/>
<path d="M90.8777 356.527L96.0859 340.05L98.2485 340.734L100.304 355.013L110.16 344.499L112.345 345.19L107.14 361.655L104.875 360.938L108.437 349.668L99.5507 359.268L98.4637 358.924L96.698 345.957L93.1317 357.239L90.8777 356.527Z" fill="#007749"/>
<path d="M116.552 363.9L119.259 346.833L130.163 348.562L129.793 350.897L121.366 349.561L120.607 354.349L127.611 355.46L127.241 357.795L120.236 356.684L119.4 361.958L127.826 363.294L127.456 365.629L116.552 363.9Z" fill="#007749"/>
<path d="M135.279 366.706L136.063 349.444L138.604 349.559L146.521 362.772L147.104 349.945L149.645 350.061L148.861 367.323L146.32 367.208L138.403 353.983L137.82 366.822L135.279 366.706Z" fill="#007749"/>
<path d="M163.302 367.393C162.065 367.476 160.934 367.339 159.907 366.983C158.889 366.618 158.03 366.062 157.33 365.315C156.638 364.56 156.16 363.642 155.895 362.561L158.479 361.991C158.813 363.027 159.419 363.813 160.296 364.347C161.174 364.874 162.171 365.1 163.288 365.025C163.983 364.979 164.614 364.828 165.182 364.574C165.75 364.311 166.196 363.965 166.52 363.534C166.851 363.095 166.998 362.588 166.96 362.013C166.939 361.702 166.864 361.431 166.737 361.199C166.617 360.966 166.455 360.768 166.252 360.606C166.056 360.434 165.818 360.294 165.538 360.184C165.266 360.066 164.967 359.97 164.641 359.895L160.136 358.886C159.696 358.787 159.246 358.653 158.786 358.483C158.325 358.305 157.896 358.065 157.499 357.763C157.109 357.453 156.782 357.062 156.518 356.59C156.254 356.111 156.098 355.52 156.051 354.817C155.98 353.756 156.191 352.84 156.685 352.069C157.186 351.29 157.891 350.681 158.8 350.244C159.708 349.798 160.741 349.537 161.899 349.459C163.065 349.397 164.121 349.535 165.065 349.873C166.018 350.21 166.823 350.733 167.479 351.443C168.144 352.144 168.627 353.018 168.93 354.064L166.278 354.699C166.115 354.06 165.822 353.522 165.4 353.086C164.978 352.641 164.475 352.314 163.891 352.104C163.308 351.887 162.684 351.796 162.021 351.832C161.382 351.859 160.801 351.994 160.28 352.237C159.767 352.48 159.364 352.8 159.07 353.196C158.783 353.592 158.657 354.034 158.689 354.521C158.721 355 158.887 355.377 159.186 355.654C159.485 355.931 159.844 356.143 160.263 356.292C160.689 356.431 161.11 356.544 161.524 356.628L164.769 357.313C165.176 357.398 165.637 357.52 166.152 357.678C166.676 357.827 167.184 358.054 167.677 358.357C168.179 358.661 168.604 359.081 168.952 359.619C169.3 360.149 169.502 360.833 169.559 361.671C169.617 362.541 169.492 363.319 169.185 364.005C168.878 364.683 168.432 365.266 167.847 365.755C167.27 366.234 166.59 366.612 165.806 366.889C165.023 367.166 164.188 367.334 163.302 367.393Z" fill="#007749"/>
<path d="M185.316 364.914C183.617 365.226 182.101 365.122 180.769 364.602C179.436 364.074 178.328 363.204 177.447 361.991C176.573 360.777 175.975 359.293 175.653 357.538C175.33 355.784 175.362 354.184 175.747 352.738C176.14 351.291 176.867 350.088 177.927 349.129C178.986 348.162 180.365 347.522 182.064 347.21C184.023 346.85 185.735 347.048 187.2 347.804C188.673 348.558 189.815 349.727 190.626 351.31L188.247 352.443C187.699 351.315 186.937 350.491 185.963 349.971C184.997 349.449 183.841 349.311 182.496 349.559C181.292 349.78 180.338 350.235 179.636 350.926C178.933 351.616 178.466 352.487 178.236 353.538C178.014 354.587 178.023 355.761 178.261 357.059C178.492 358.359 178.897 359.46 179.478 360.362C180.066 361.262 180.812 361.91 181.714 362.306C182.624 362.7 183.681 362.786 184.885 362.565C186.23 362.318 187.262 361.779 187.98 360.947C188.704 360.107 189.122 359.066 189.236 357.825L191.862 358.038C191.666 359.806 191.014 361.305 189.906 362.533C188.805 363.76 187.276 364.554 185.316 364.914Z" fill="#007749"/>
<path d="M200.67 361.474L195.599 344.955L197.996 344.219L200.183 351.342L208.443 348.806L206.256 341.683L208.665 340.943L213.736 357.462L211.327 358.201L209.137 351.066L200.877 353.602L203.068 360.737L200.67 361.474Z" fill="#007749"/>
<path d="M507.533 38.6456L501.015 22.642L503.371 21.6824L516.094 30.3648L511.25 18.4732L513.606 17.5137L520.124 33.5172L517.768 34.4768L505.041 25.7833L509.889 37.686L507.533 38.6456Z" fill="#007749"/>
<path d="M524.32 31.6512L526.58 13.6226L530.128 12.9421L538.898 28.8547L536.341 29.3453L528.291 14.834L528.928 14.7119L526.878 31.1606L524.32 31.6512ZM526.449 27.2717L526.006 24.9618L534.869 23.2617L535.312 25.5716L526.449 27.2717Z" fill="#007749"/>
<path d="M547.232 28.3715L547.55 13.4589L541.804 13.3362L541.854 10.9728L555.855 11.2717L555.804 13.6352L550.058 13.5125L549.739 28.4251L547.232 28.3715Z" fill="#007749"/>
<path d="M565.583 30.497C564.265 30.1971 563.16 29.6627 562.268 28.8938C561.386 28.1189 560.771 27.1791 560.423 26.0745C560.078 24.9621 560.055 23.7428 560.357 22.4167L562.776 11.7803L565.26 12.3328L562.867 22.8522C562.704 23.5698 562.681 24.2292 562.798 24.8303C562.916 25.4313 563.136 25.9613 563.458 26.4202C563.781 26.8791 564.17 27.2589 564.627 27.5597C565.091 27.8622 565.585 28.073 566.107 28.1918C566.638 28.3125 567.174 28.336 567.716 28.2623C568.267 28.1826 568.787 28.0056 569.276 27.7312C569.765 27.4569 570.189 27.0733 570.547 26.5804C570.913 26.0894 571.177 25.4889 571.339 24.779L573.731 14.2597L576.212 14.8239L573.79 25.472C573.49 26.7903 572.944 27.8762 572.151 28.7295C571.358 29.5829 570.392 30.1673 569.254 30.4827C568.125 30.7921 566.901 30.7968 565.583 30.497Z" fill="#007749"/>
<path d="M577.969 33.2078L584.668 17.2793L591.106 19.9869C591.261 20.052 591.449 20.1401 591.672 20.251C591.897 20.3545 592.105 20.4681 592.296 20.5918C593.122 21.1041 593.733 21.7166 594.127 22.4293C594.529 23.1451 594.729 23.919 594.726 24.751C594.723 25.583 594.542 26.4267 594.182 27.2821C593.649 28.5505 592.864 29.5091 591.827 30.158C590.793 30.7995 589.58 30.9616 588.186 30.6443L587.199 30.3595L582.686 28.4614L580.281 34.1802L577.969 33.2078ZM587.282 37.125L586.867 29.3218L589.452 29.7061L589.926 38.2369L587.282 37.125ZM583.607 26.2712L587.644 27.9693C587.792 28.0313 587.957 28.0922 588.14 28.1518C588.331 28.2146 588.515 28.2617 588.693 28.2931C589.211 28.381 589.676 28.3379 590.088 28.1639C590.503 27.9825 590.855 27.7227 591.145 27.3846C591.435 27.0465 591.662 26.682 591.826 26.2912C591.99 25.9004 592.09 25.4868 592.126 25.0507C592.165 24.6071 592.103 24.1773 591.94 23.7614C591.779 23.3381 591.486 22.9719 591.061 22.6628C590.917 22.5503 590.756 22.4479 590.578 22.3556C590.407 22.2664 590.248 22.1908 590.101 22.1288L586.063 20.4307L583.607 26.2712Z" fill="#007749"/>
<path d="M868.826 351.935C867.755 351.491 866.844 350.897 866.096 350.154C865.35 349.404 864.793 348.533 864.425 347.54C864.056 346.548 863.9 345.461 863.956 344.281C864.012 343.1 864.311 341.856 864.853 340.548C865.566 338.826 866.492 337.478 867.632 336.503C868.774 335.522 870.041 334.93 871.433 334.727C872.827 334.516 874.253 334.712 875.709 335.316C877.586 336.093 878.902 337.149 879.657 338.483C880.42 339.821 880.686 341.342 880.455 343.048L877.931 342.496C878 341.408 877.791 340.429 877.302 339.56C876.813 338.691 876.024 338.026 874.933 337.566C873.805 337.09 872.759 336.951 871.793 337.149C870.836 337.35 869.977 337.834 869.217 338.602C868.461 339.362 867.826 340.351 867.314 341.567C866.802 342.784 866.544 343.928 866.541 345.001C866.542 346.066 866.813 347.01 867.356 347.832C867.906 348.657 868.745 349.308 869.873 349.784C870.776 350.175 871.625 350.331 872.419 350.253C873.224 350.171 873.959 349.869 874.625 349.349C875.291 348.828 875.884 348.095 876.405 347.151L873.301 345.865L874.073 344.002L879.638 346.307C879.598 346.447 879.535 346.629 879.451 346.853C879.37 347.071 879.317 347.209 879.292 347.268C878.68 348.746 877.849 349.948 876.799 350.873C875.75 351.797 874.544 352.367 873.182 352.583C871.823 352.79 870.371 352.574 868.826 351.935Z" fill="#007749"/>
<path d="M882.876 357.098L887.875 340.557L898.443 343.751L897.759 346.014L889.592 343.545L888.19 348.186L894.978 350.238L894.295 352.501L887.506 350.449L885.961 355.561L894.128 358.029L893.444 360.292L882.876 357.098Z" fill="#007749"/>
<path d="M907.646 364.09C906.428 363.858 905.367 363.44 904.464 362.837C903.571 362.227 902.88 361.472 902.391 360.573C901.912 359.667 901.681 358.658 901.698 357.545L904.342 357.646C904.403 358.733 904.791 359.645 905.506 360.384C906.221 361.115 907.129 361.585 908.23 361.795C908.913 361.925 909.562 361.939 910.176 361.836C910.792 361.726 911.311 361.503 911.733 361.168C912.165 360.827 912.434 360.373 912.542 359.807C912.6 359.501 912.597 359.219 912.532 358.962C912.475 358.707 912.368 358.475 912.213 358.266C912.066 358.051 911.872 357.855 911.628 357.679C911.394 357.496 911.129 357.327 910.833 357.173L906.728 355.059C906.328 354.852 905.926 354.609 905.524 354.329C905.122 354.04 904.768 353.7 904.46 353.307C904.161 352.908 903.944 352.448 903.807 351.925C903.672 351.394 903.67 350.783 903.802 350.091C904.001 349.046 904.437 348.213 905.109 347.592C905.791 346.964 906.626 346.554 907.616 346.359C908.608 346.157 909.673 346.165 910.813 346.382C911.957 346.617 912.944 347.016 913.772 347.581C914.609 348.148 915.256 348.858 915.712 349.71C916.178 350.556 916.425 351.524 916.454 352.612L913.728 352.557C913.732 351.898 913.584 351.304 913.286 350.775C912.989 350.238 912.585 349.794 912.074 349.444C911.564 349.087 910.983 348.842 910.332 348.709C909.707 348.574 909.111 348.558 908.546 348.662C907.988 348.768 907.517 348.975 907.132 349.284C906.755 349.595 906.521 349.991 906.43 350.47C906.34 350.941 906.405 351.349 906.625 351.692C906.844 352.035 907.138 352.331 907.506 352.581C907.883 352.824 908.261 353.038 908.641 353.225L911.608 354.706C911.98 354.891 912.396 355.125 912.855 355.408C913.324 355.685 913.758 356.032 914.159 356.451C914.568 356.87 914.873 357.385 915.074 357.993C915.278 358.594 915.3 359.307 915.143 360.132C914.98 360.988 914.663 361.71 914.193 362.296C913.725 362.875 913.146 363.326 912.457 363.651C911.777 363.97 911.024 364.164 910.196 364.234C909.368 364.305 908.518 364.257 907.646 364.09Z" fill="#007749"/>
<path d="M929.085 367.151C927.737 367.052 926.564 366.69 925.567 366.064C924.578 365.431 923.829 364.594 923.319 363.554C922.81 362.506 922.605 361.304 922.704 359.948L923.497 349.069L926.035 349.242L925.251 360.001C925.197 360.735 925.274 361.39 925.48 361.967C925.687 362.544 925.984 363.034 926.372 363.44C926.759 363.845 927.201 364.162 927.698 364.391C928.203 364.62 928.722 364.754 929.257 364.793C929.799 364.833 930.333 364.775 930.858 364.621C931.391 364.459 931.879 364.206 932.321 363.861C932.763 363.517 933.124 363.074 933.404 362.533C933.692 361.992 933.863 361.359 933.916 360.633L934.7 349.873L937.238 350.058L936.443 360.949C936.345 362.298 935.968 363.454 935.312 364.416C934.657 365.379 933.79 366.102 932.712 366.585C931.642 367.061 930.433 367.249 929.085 367.151Z" fill="#007749"/>
<path d="M944.412 367.642L943.656 350.378L946.198 350.267L955.259 362.723L954.698 349.895L957.239 349.784L957.995 367.047L955.453 367.159L946.391 354.691L946.953 367.531L944.412 367.642Z" fill="#007749"/>
<path d="M965.758 366.516L963.177 349.43L968.528 348.622C968.686 348.598 968.979 348.558 969.408 348.501C969.844 348.443 970.264 348.412 970.668 348.408C972.03 348.372 973.226 348.681 974.255 349.334C975.292 349.987 976.136 350.887 976.786 352.034C977.436 353.174 977.87 354.468 978.089 355.915C978.309 357.371 978.277 358.743 977.995 360.032C977.711 361.312 977.17 362.418 976.372 363.347C975.581 364.268 974.529 364.912 973.217 365.28C972.83 365.395 972.42 365.49 971.986 365.563C971.56 365.636 971.268 365.684 971.11 365.708L965.758 366.516ZM967.941 363.772L970.753 363.347C971.022 363.306 971.341 363.25 971.71 363.178C972.08 363.106 972.403 363.025 972.681 362.934C973.526 362.636 974.173 362.154 974.622 361.488C975.079 360.812 975.368 360.024 975.491 359.123C975.614 358.223 975.602 357.286 975.455 356.313C975.303 355.309 975.032 354.399 974.642 353.584C974.251 352.761 973.738 352.103 973.105 351.608C972.479 351.103 971.727 350.837 970.849 350.808C970.555 350.795 970.218 350.814 969.838 350.863C969.463 350.904 969.146 350.944 968.885 350.983L966.073 351.408L967.941 363.772Z" fill="#007749"/>
<path d="M987.434 363.046L983.234 346.285L985.667 345.675L987.478 352.904L995.859 350.804L994.048 343.575L996.493 342.963L1000.69 359.724L998.248 360.337L996.434 353.097L988.053 355.197L989.867 362.437L987.434 363.046Z" fill="#007749"/>
<path d="M1008.94 357.414L1003.47 341.025L1013.94 337.526L1014.69 339.768L1006.59 342.472L1008.13 347.07L1014.86 344.822L1015.61 347.064L1008.88 349.312L1010.57 354.377L1018.66 351.673L1019.41 353.915L1008.94 357.414Z" fill="#007749"/>
<path d="M1026.24 351.442L1020.01 335.326L1022.35 334.421L1028.58 350.538L1026.24 351.442Z" fill="#007749"/>
<path d="M1039.88 345.978L1033.93 332.304L1028.66 334.599L1027.71 332.432L1040.55 326.839L1041.5 329.006L1036.23 331.302L1042.18 344.977L1039.88 345.978Z" fill="#007749"/>
</svg>
